<?xml version="1.0" encoding="UTF-8" standalone="no"?>
<!-- Created with Inkscape (http://www.inkscape.org/) -->

<svg
   xmlns:dc="http://purl.org/dc/elements/1.1/"
   xmlns:cc="http://creativecommons.org/ns#"
   xmlns:rdf="http://www.w3.org/1999/02/22-rdf-syntax-ns#"
   xmlns:svg="http://www.w3.org/2000/svg"
   xmlns="http://www.w3.org/2000/svg"
   xmlns:sodipodi="http://sodipodi.sourceforge.net/DTD/sodipodi-0.dtd"
   xmlns:inkscape="http://www.inkscape.org/namespaces/inkscape"
   width="800"
   height="300"
   version="1.1"
   id="svg2"
   inkscape:version="0.91 r13725"
   sodipodi:docname="schematic.svg">
  <metadata
     id="metadata10">
    <rdf:RDF>
      <cc:Work
         rdf:about="">
        <dc:format>image/svg+xml</dc:format>
        <dc:type
           rdf:resource="http://purl.org/dc/dcmitype/StillImage" />
        <dc:title></dc:title>
      </cc:Work>
    </rdf:RDF>
  </metadata>
  <defs
     id="defs8" />
  <sodipodi:namedview
     pagecolor="#ffffff"
     bordercolor="#666666"
     borderopacity="1"
     objecttolerance="10"
     gridtolerance="10"
     guidetolerance="10"
     inkscape:pageopacity="0"
     inkscape:pageshadow="2"
     inkscape:window-width="1366"
     inkscape:window-height="705"
     id="namedview6"
     showgrid="false"
     inkscape:zoom="0.76833333"
     inkscape:cx="401.11558"
     inkscape:cy="150"
     inkscape:window-x="-8"
     inkscape:window-y="-8"
     inkscape:window-maximized="1"
     inkscape:current-layer="g4463" />
  <g
     id="g4"
     style="stroke:#000000;stroke-width:4;stroke-miterlimit:4;stroke-dasharray:none;stroke-opacity:1" />
  <g
     inkscape:groupmode="layer"
     id="layer2"
     inkscape:label="0Shape">
    <path
       style="fill:none;fill-rule:evenodd;stroke:#000000;stroke-width:4;stroke-linecap:butt;stroke-linejoin:miter;stroke-miterlimit:4;stroke-dasharray:none;stroke-opacity:1"
       d="m 0,100 150,0"
       id="path3338"
       inkscape:connector-curvature="0"
       sodipodi:nodetypes="cc" />
    <path
       style="fill:none;fill-rule:evenodd;stroke:#000000;stroke-width:4;stroke-linecap:butt;stroke-linejoin:miter;stroke-miterlimit:4;stroke-dasharray:none;stroke-opacity:1"
       d="m 300,100 200,0"
       id="path3340"
       inkscape:connector-curvature="0"
       sodipodi:nodetypes="cc" />
    <path
       style="fill:none;fill-rule:evenodd;stroke:#000000;stroke-width:4;stroke-linecap:butt;stroke-linejoin:miter;stroke-miterlimit:4;stroke-dasharray:none;stroke-opacity:1"
       d="m 650,100 150,0"
       id="path3342"
       inkscape:connector-curvature="0"
       sodipodi:nodetypes="cc" />
    <rect
       style="fill:#ffffff;fill-opacity:1;stroke:#000000;stroke-width:4;stroke-miterlimit:4;stroke-dasharray:none;stroke-opacity:1"
       id="rect4136"
       width="150"
       height="100"
       x="150"
       y="50" />
    <rect
       style="fill:#ffffff;fill-opacity:1;stroke:#000000;stroke-width:4;stroke-miterlimit:4;stroke-dasharray:none;stroke-opacity:1"
       id="rect4136-9"
       width="150"
       height="100"
       x="500"
       y="50" />
  </g>
  <g
     inkscape:groupmode="layer"
     id="layer1"
     inkscape:label="1Text"
     style="display:none">
    <text
       xml:space="preserve"
       style="font-style:normal;font-weight:normal;font-size:40px;line-height:100%;font-family:sans-serif;letter-spacing:0px;word-spacing:0px;writing-mode:lr-tb;fill:#000000;fill-opacity:1;stroke:none;stroke-width:1px;stroke-linecap:butt;stroke-linejoin:miter;stroke-opacity:1"
       x="225"
       y="100"
       id="text4153"
       sodipodi:linespacing="100%"><tspan
         sodipodi:role="line"
         id="tspan4155"
         x="225"
         y="100"
         style="line-height:100%;text-align:center;writing-mode:lr-tb;text-anchor:middle"
         dy="12">Client</tspan></text>
    <text
       xml:space="preserve"
       style="font-style:normal;font-weight:normal;font-size:40px;line-height:100%;font-family:sans-serif;text-align:center;letter-spacing:0px;word-spacing:0px;text-anchor:middle;fill:#000000;fill-opacity:1;stroke:none;stroke-width:1px;stroke-linecap:butt;stroke-linejoin:miter;stroke-opacity:1"
       x="575"
       y="100"
       id="text4157"
       sodipodi:linespacing="100%"><tspan
         sodipodi:role="line"
         x="575"
         y="100"
         id="tspan4161"
         style="line-height:100%;text-align:center;text-anchor:middle"
         dy="-4">Client</tspan><tspan
         sodipodi:role="line"
         x="575"
         y="140"
         style="line-height:100%;text-align:center;text-anchor:middle"
         id="tspan4152"
         dy="-4">RTS</tspan></text>
    <text
       xml:space="preserve"
       style="font-style:normal;font-weight:normal;font-size:40px;line-height:125%;font-family:sans-serif;text-align:center;letter-spacing:0px;word-spacing:0px;text-anchor:middle;fill:#000000;fill-opacity:1;stroke:none;stroke-width:1px;stroke-linecap:butt;stroke-linejoin:miter;stroke-opacity:1"
       x="400"
       y="75"
       id="text4167"
       sodipodi:linespacing="125%"><tspan
         sodipodi:role="line"
         id="tspan4169"
         x="400"
         y="75"
         style="font-size:30px">SPI</tspan></text>
    <text
       xml:space="preserve"
       style="font-style:normal;font-weight:normal;font-size:20px;line-height:225%;font-family:sans-serif;letter-spacing:0px;word-spacing:0px;fill:#000000;fill-opacity:1;stroke:none;stroke-width:1px;stroke-linecap:butt;stroke-linejoin:miter;stroke-opacity:1"
       x="310"
       y="130"
       id="text4171"
       sodipodi:linespacing="225%"><tspan
         sodipodi:role="line"
         x="310"
         y="130"
         id="tspan4154"
         style="font-style:normal;font-variant:normal;font-weight:bold;font-stretch:normal;line-height:100%;font-family:sans-serif;-inkscape-font-specification:'sans-serif Bold'">master</tspan><tspan
         sodipodi:role="line"
         x="310"
         y="166.5448"
         style="line-height:200%"
         id="tspan4168">SCLK→</tspan><tspan
         sodipodi:role="line"
         x="310"
         y="191.59915"
         id="tspan4156"
         style="line-height:100%">MOSI→</tspan><tspan
         sodipodi:role="line"
         x="310"
         y="212.39873"
         id="tspan4158"
         style="line-height:100%">/SS→</tspan></text>
    <text
       xml:space="preserve"
       style="font-style:normal;font-weight:normal;font-size:20px;line-height:200%;font-family:sans-serif;text-align:end;letter-spacing:0px;word-spacing:0px;text-anchor:end;fill:#000000;fill-opacity:1;stroke:none;stroke-width:1px;stroke-linecap:butt;stroke-linejoin:miter;stroke-opacity:1"
       x="490"
       y="130"
       id="text4171-5"
       sodipodi:linespacing="200%"><tspan
         sodipodi:role="line"
         x="490"
         y="130"
         id="tspan4193"
         style="font-style:normal;font-variant:normal;font-weight:bold;font-stretch:normal;line-height:100%;font-family:sans-serif;-inkscape-font-specification:'sans-serif Bold'">slave</tspan><tspan
         sodipodi:role="line"
         x="490"
         y="166.5448"
         id="tspan4160"
         style="line-height:200%">←MISO</tspan></text>
    <text
       xml:space="preserve"
       style="font-style:normal;font-weight:normal;font-size:20px;line-height:125%;font-family:sans-serif;text-align:end;letter-spacing:0px;word-spacing:0px;text-anchor:end;fill:#000000;fill-opacity:1;stroke:none;stroke-width:1px;stroke-linecap:butt;stroke-linejoin:miter;stroke-opacity:1"
       x="140"
       y="130"
       id="text4171-5-6"
       sodipodi:linespacing="125%"><tspan
         sodipodi:role="line"
         x="140"
         y="130"
         id="tspan4193-6">← … server</tspan></text>
    <text
       xml:space="preserve"
       style="font-style:normal;font-weight:normal;font-size:20px;line-height:125%;font-family:sans-serif;letter-spacing:0px;word-spacing:0px;fill:#000000;fill-opacity:1;stroke:none;stroke-width:1px;stroke-linecap:butt;stroke-linejoin:miter;stroke-opacity:1"
       x="660"
       y="130"
       id="text4171-4"
       sodipodi:linespacing="125%"><tspan
         sodipodi:role="line"
         id="tspan4173-7"
         x="660"
         y="130">sensors … →</tspan></text>
  </g>
  <g
     inkscape:label="1Text.pathified"
     id="g4463"
     inkscape:groupmode="layer">
    <g
       style="font-style:normal;font-weight:normal;font-size:40px;line-height:100%;font-family:sans-serif;letter-spacing:0px;word-spacing:0px;writing-mode:lr-tb;fill:#000000;fill-opacity:1;stroke:none;stroke-width:1px;stroke-linecap:butt;stroke-linejoin:miter;stroke-opacity:1"
       id="text4465">
      <path
         d="m 194.0625,109.89063 q -1.07422,0.46875 -1.95313,0.8789 -0.85937,0.41016 -2.26562,0.85938 -1.19141,0.37109 -2.59766,0.625 -1.38672,0.27343 -3.0664,0.27343 -3.16407,0 -5.76172,-0.8789 -2.57813,-0.89844 -4.49219,-2.79297 -1.875,-1.85547 -2.92969,-4.70703 -1.05468,-2.8711 -1.05468,-6.660159 0,-3.59375 1.01562,-6.425781 1.01563,-2.832031 2.92969,-4.785156 1.85547,-1.894532 4.47265,-2.890625 2.63672,-0.996094 5.83985,-0.996094 2.34375,0 4.66797,0.566406 2.34375,0.566406 5.19531,1.992188 l 0,4.589843 -0.29297,0 q -2.40234,-2.011718 -4.76562,-2.929687 -2.36329,-0.917969 -5.0586,-0.917969 -2.20703,0 -3.98437,0.722656 -1.75782,0.703125 -3.14453,2.207032 -1.34766,1.464843 -2.10938,3.710937 -0.74219,2.226563 -0.74219,5.15625 0,3.066409 0.82032,5.273439 0.83984,2.20703 2.14843,3.59375 1.36719,1.44531 3.1836,2.14844 1.83593,0.68359 3.86718,0.68359 2.79297,0 5.23438,-0.95703 2.44141,-0.95703 4.57031,-2.87109 l 0.27344,0 0,4.53125 z"
         style="line-height:100%;text-align:center;writing-mode:lr-tb;text-anchor:middle"
         id="path4504" />
      <path
         d="m 202.98828,112 -3.67187,0 0,-30.390625 3.67187,0 0,30.390625 z"
         style="line-height:100%;text-align:center;writing-mode:lr-tb;text-anchor:middle"
         id="path4506" />
      <path
         d="m 214.08203,86.53125 -4.14062,0 0,-3.808594 4.14062,0 0,3.808594 z M 213.84766,112 l -3.67188,0 0,-21.816406 3.67188,0 0,21.816406 z"
         style="line-height:100%;text-align:center;writing-mode:lr-tb;text-anchor:middle"
         id="path4508" />
      <path
         d="m 239.25781,101.47266 -16.07422,0 q 0,2.01172 0.60547,3.51562 0.60547,1.48438 1.66016,2.44141 1.01562,0.9375 2.40234,1.40625 1.40625,0.46875 3.08594,0.46875 2.22656,0 4.47266,-0.87891 2.26562,-0.89844 3.22265,-1.75781 l 0.19531,0 0,4.00391 q -1.85546,0.78125 -3.78906,1.30859 -1.93359,0.52734 -4.0625,0.52734 -5.42969,0 -8.47656,-2.92968 -3.04688,-2.94922 -3.04688,-8.35938 0,-5.351563 2.91016,-8.496094 2.92969,-3.144531 7.69531,-3.144531 4.41407,0 6.79688,2.578125 2.40234,2.578125 2.40234,7.324219 l 0,1.992191 z m -3.57422,-2.812504 q -0.0195,-2.890625 -1.46484,-4.472656 -1.42578,-1.582031 -4.35547,-1.582031 -2.94922,0 -4.70703,1.738281 -1.73828,1.738281 -1.97266,4.316406 l 12.5,0 z"
         style="line-height:100%;text-align:center;writing-mode:lr-tb;text-anchor:middle"
         id="path4510" />
      <path
         d="m 263.06641,112 -3.67188,0 0,-12.421875 q 0,-1.503906 -0.17578,-2.8125 -0.17578,-1.328125 -0.64453,-2.070313 -0.48828,-0.820312 -1.40625,-1.210937 -0.91797,-0.410156 -2.38281,-0.410156 -1.50391,0 -3.14454,0.742187 -1.64062,0.742188 -3.14453,1.894531 l 0,16.289063 -3.67187,0 0,-21.816406 3.67187,0 0,2.421875 q 1.71875,-1.425782 3.55469,-2.226563 1.83594,-0.800781 3.76953,-0.800781 3.53516,0 5.39063,2.128906 1.85547,2.128906 1.85547,6.132813 l 0,14.160156 z"
         style="line-height:100%;text-align:center;writing-mode:lr-tb;text-anchor:middle"
         id="path4512" />
      <path
         d="m 281.46484,111.80469 q -1.03515,0.27344 -2.26562,0.44922 -1.21094,0.17578 -2.16797,0.17578 -3.33984,0 -5.07813,-1.79688 -1.73828,-1.79687 -1.73828,-5.76172 l 0,-11.601559 -2.48047,0 0,-3.085937 2.48047,0 0,-6.269532 3.67188,0 0,6.269532 7.57812,0 0,3.085937 -7.57812,0 0,9.941409 q 0,1.71875 0.0781,2.69531 0.0781,0.95703 0.54688,1.79688 0.42969,0.78125 1.17187,1.15234 0.76172,0.35156 2.30469,0.35156 0.89844,0 1.875,-0.2539 0.97656,-0.27344 1.40625,-0.44922 l 0.19531,0 0,3.30078 z"
         style="line-height:100%;text-align:center;writing-mode:lr-tb;text-anchor:middle"
         id="path4514" />
    </g>
    <g
       style="font-style:normal;font-weight:normal;font-size:40px;line-height:100%;font-family:sans-serif;text-align:center;letter-spacing:0px;word-spacing:0px;text-anchor:middle;fill:#000000;fill-opacity:1;stroke:none;stroke-width:1px;stroke-linecap:butt;stroke-linejoin:miter;stroke-opacity:1"
       id="text4469">
      <path
         d="m 544.0625,93.890625 q -1.07422,0.46875 -1.95313,0.878906 -0.85937,0.410156 -2.26562,0.859375 -1.19141,0.371094 -2.59766,0.625 -1.38672,0.273438 -3.0664,0.273438 -3.16407,0 -5.76172,-0.878907 Q 525.83984,94.75 523.92578,92.855469 522.05078,91 520.99609,88.148437 q -1.05468,-2.871093 -1.05468,-6.660156 0,-3.59375 1.01562,-6.425781 1.01563,-2.832031 2.92969,-4.785156 1.85547,-1.894532 4.47265,-2.890625 2.63672,-0.996094 5.83985,-0.996094 2.34375,0 4.66797,0.566406 2.34375,0.566406 5.19531,1.992188 l 0,4.589843 -0.29297,0 q -2.40234,-2.011718 -4.76562,-2.929687 -2.36329,-0.917969 -5.0586,-0.917969 -2.20703,0 -3.98437,0.722656 -1.75782,0.703125 -3.14453,2.207032 -1.34766,1.464843 -2.10938,3.710937 -0.74219,2.226563 -0.74219,5.15625 0,3.066406 0.82032,5.273438 0.83984,2.207031 2.14843,3.59375 1.36719,1.445312 3.1836,2.148437 1.83593,0.683594 3.86718,0.683594 2.79297,0 5.23438,-0.957031 2.44141,-0.957032 4.57031,-2.871094 l 0.27344,0 0,4.53125 z"
         style="line-height:100%;text-align:center;text-anchor:middle"
         id="path4517" />
      <path
         d="m 552.98828,96 -3.67187,0 0,-30.390625 3.67187,0 0,30.390625 z"
         style="line-height:100%;text-align:center;text-anchor:middle"
         id="path4519" />
      <path
         d="m 564.08203,70.53125 -4.14062,0 0,-3.808594 4.14062,0 0,3.808594 z M 563.84766,96 l -3.67188,0 0,-21.816406 3.67188,0 0,21.816406 z"
         style="line-height:100%;text-align:center;text-anchor:middle"
         id="path4521" />
      <path
         d="m 589.25781,85.472656 -16.07422,0 q 0,2.011719 0.60547,3.515625 0.60547,1.484375 1.66016,2.441406 1.01562,0.9375 2.40234,1.40625 1.40625,0.46875 3.08594,0.46875 2.22656,0 4.47266,-0.878906 2.26562,-0.898437 3.22265,-1.757812 l 0.19531,0 0,4.003906 q -1.85546,0.78125 -3.78906,1.308594 -1.93359,0.527343 -4.0625,0.527343 -5.42969,0 -8.47656,-2.929687 -3.04688,-2.949219 -3.04688,-8.359375 0,-5.351563 2.91016,-8.496094 2.92969,-3.144531 7.69531,-3.144531 4.41407,0 6.79688,2.578125 2.40234,2.578125 2.40234,7.324219 l 0,1.992187 z m -3.57422,-2.8125 q -0.0195,-2.890625 -1.46484,-4.472656 -1.42578,-1.582031 -4.35547,-1.582031 -2.94922,0 -4.70703,1.738281 -1.73828,1.738281 -1.97266,4.316406 l 12.5,0 z"
         style="line-height:100%;text-align:center;text-anchor:middle"
         id="path4523" />
      <path
         d="m 613.06641,96 -3.67188,0 0,-12.421875 q 0,-1.503906 -0.17578,-2.8125 -0.17578,-1.328125 -0.64453,-2.070313 -0.48828,-0.820312 -1.40625,-1.210937 -0.91797,-0.410156 -2.38281,-0.410156 -1.50391,0 -3.14454,0.742187 -1.64062,0.742188 -3.14453,1.894531 l 0,16.289063 -3.67187,0 0,-21.816406 3.67187,0 0,2.421875 q 1.71875,-1.425782 3.55469,-2.226563 1.83594,-0.800781 3.76953,-0.800781 3.53516,0 5.39063,2.128906 1.85547,2.128906 1.85547,6.132813 l 0,14.160156 z"
         style="line-height:100%;text-align:center;text-anchor:middle"
         id="path4525" />
      <path
         d="m 631.46484,95.804687 q -1.03515,0.273438 -2.26562,0.449219 -1.21094,0.175781 -2.16797,0.175781 -3.33984,0 -5.07813,-1.796875 -1.73828,-1.796875 -1.73828,-5.761718 l 0,-11.601563 -2.48047,0 0,-3.085937 2.48047,0 0,-6.269532 3.67188,0 0,6.269532 7.57812,0 0,3.085937 -7.57812,0 0,9.941406 q 0,1.71875 0.0781,2.695313 0.0781,0.957031 0.54688,1.796875 0.42969,0.78125 1.17187,1.152344 0.76172,0.351562 2.30469,0.351562 0.89844,0 1.875,-0.253906 0.97656,-0.273438 1.40625,-0.449219 l 0.19531,0 0,3.300781 z"
         style="line-height:100%;text-align:center;text-anchor:middle"
         id="path4527" />
      <path
         d="m 563.75,136 -5.01953,0 -9.72656,-11.5625 -5.44922,0 0,11.5625 -3.86719,0 0,-29.08203 8.14453,0 q 2.63672,0 4.39453,0.35156 1.75781,0.33203 3.16406,1.21094 1.58204,0.99609 2.46094,2.51953 0.89844,1.50391 0.89844,3.82813 0,3.14453 -1.58203,5.27343 -1.58203,2.10938 -4.35547,3.1836 L 563.75,136 Z m -9.04297,-20.89844 q 0,-1.25 -0.44922,-2.20703 -0.42969,-0.97656 -1.44531,-1.64062 -0.83984,-0.56641 -1.99219,-0.78125 -1.15234,-0.23438 -2.71484,-0.23438 l -4.55078,0 0,10.97656 3.90625,0 q 1.83593,0 3.20312,-0.3125 1.36719,-0.33203 2.32422,-1.21093 0.87891,-0.82032 1.28906,-1.875 0.42969,-1.07422 0.42969,-2.71485 z"
         style="line-height:100%;text-align:center;text-anchor:middle"
         id="path4529" />
      <path
         d="m 587.07031,110.35547 -10.39062,0 0,25.64453 -3.86719,0 0,-25.64453 -10.39063,0 0,-3.4375 24.64844,0 0,3.4375 z"
         style="line-height:100%;text-align:center;text-anchor:middle"
         id="path4531" />
      <path
         d="m 611.91406,127.69922 q 0,1.69922 -0.80078,3.35937 -0.78125,1.66016 -2.20703,2.8125 -1.5625,1.25 -3.65234,1.95313 -2.07032,0.70312 -5,0.70312 -3.14454,0 -5.66407,-0.58593 -2.5,-0.58594 -5.09765,-1.73829 l 0,-4.84375 0.27343,0 q 2.20704,1.83594 5.09766,2.83204 2.89063,0.99609 5.42969,0.99609 3.59375,0 5.58594,-1.34766 2.01171,-1.34765 2.01171,-3.59375 0,-1.93359 -0.95703,-2.85156 -0.9375,-0.91797 -2.87109,-1.42578 -1.46484,-0.39062 -3.18359,-0.64453 -1.69922,-0.25391 -3.61329,-0.64453 -3.86718,-0.82031 -5.74218,-2.79297 -1.85547,-1.99219 -1.85547,-5.17578 0,-3.65235 3.08594,-5.97656 3.08593,-2.34375 7.83203,-2.34375 3.0664,0 5.625,0.58593 2.55859,0.58594 4.53125,1.44532 l 0,4.57031 -0.27344,0 q -1.66016,-1.40625 -4.375,-2.32422 -2.69531,-0.9375 -5.52734,-0.9375 -3.10547,0 -5,1.28906 -1.875,1.28906 -1.875,3.32031 0,1.81641 0.9375,2.85157 0.9375,1.03515 3.30078,1.58203 1.25,0.27344 3.55468,0.66406 2.30469,0.39063 3.90625,0.80078 3.24219,0.85938 4.88282,2.59766 1.64062,1.73828 1.64062,4.86328 z"
         style="line-height:100%;text-align:center;text-anchor:middle"
         id="path4533" />
    </g>
    <g
       style="font-style:normal;font-weight:normal;font-size:40px;line-height:125%;font-family:sans-serif;text-align:center;letter-spacing:0px;word-spacing:0px;text-anchor:middle;fill:#000000;fill-opacity:1;stroke:none;stroke-width:1px;stroke-linecap:butt;stroke-linejoin:miter;stroke-opacity:1"
       id="text4475">
      <path
         d="m 393.14453,68.774414 q 0,1.274414 -0.60058,2.519531 -0.58594,1.245117 -1.65528,2.109375 -1.17187,0.9375 -2.73926,1.464844 -1.55273,0.527344 -3.75,0.527344 -2.35839,0 -4.24804,-0.439453 -1.875,-0.439453 -3.82325,-1.303711 l 0,-3.632813 0.20508,0 q 1.65528,1.376953 3.82325,2.124024 2.16796,0.74707 4.07226,0.74707 2.69531,0 4.18945,-1.010742 1.50879,-1.010742 1.50879,-2.695313 0,-1.450195 -0.71777,-2.138672 -0.70313,-0.688476 -2.15332,-1.069336 -1.09863,-0.292968 -2.3877,-0.483398 -1.27441,-0.19043 -2.70996,-0.483398 -2.90039,-0.615235 -4.30664,-2.094727 -1.3916,-1.494141 -1.3916,-3.881836 0,-2.739258 2.31445,-4.482422 2.31446,-1.757812 5.87403,-1.757812 2.2998,0 4.21875,0.439453 1.91894,0.439453 3.39843,1.083984 l 0,3.427735 -0.20507,0 q -1.24512,-1.054688 -3.28125,-1.743164 -2.02149,-0.703125 -4.14551,-0.703125 -2.3291,0 -3.75,0.966796 -1.40625,0.966797 -1.40625,2.490235 0,1.362304 0.70312,2.138672 0.70313,0.776367 2.47559,1.186523 0.9375,0.205078 2.66602,0.498047 1.72851,0.292969 2.92968,0.600586 2.43164,0.644531 3.66211,1.948242 1.23047,1.303711 1.23047,3.647461 z"
         style="font-size:30px"
         id="path4536" />
      <path
         d="m 412.07031,59.780273 q 0,1.450196 -0.51269,2.695313 -0.49805,1.230469 -1.40625,2.138672 -1.12793,1.127929 -2.66602,1.699219 -1.53808,0.55664 -3.88183,0.55664 l -2.9004,0 0,8.129883 -2.90039,0 0,-21.811523 5.91797,0 q 1.96289,0 3.3252,0.336914 1.3623,0.322265 2.41699,1.02539 1.24512,0.834961 1.91895,2.080078 0.68847,1.245118 0.68847,3.149414 z m -3.01758,0.07324 q 0,-1.12793 -0.3955,-1.962891 -0.39551,-0.834961 -1.20118,-1.362305 -0.70312,-0.454101 -1.61132,-0.644531 -0.89356,-0.205078 -2.27051,-0.205078 l -2.8711,0 0,8.71582 2.44629,0 q 1.75782,0 2.85645,-0.307617 1.09863,-0.322266 1.78711,-1.010742 0.68848,-0.703125 0.9668,-1.479492 0.29296,-0.776368 0.29296,-1.743164 z"
         style="font-size:30px"
         id="path4538" />
      <path
         d="m 423.59863,75 -8.61328,0 0,-2.226563 2.85645,0 0,-17.358398 -2.85645,0 0,-2.226562 8.61328,0 0,2.226562 -2.85644,0 0,17.358398 2.85644,0 0,2.226563 z"
         style="font-size:30px"
         id="path4540" />
    </g>
    <g
       style="font-style:normal;font-weight:normal;font-size:20px;line-height:225%;font-family:sans-serif;letter-spacing:0px;word-spacing:0px;fill:#000000;fill-opacity:1;stroke:none;stroke-width:1px;stroke-linecap:butt;stroke-linejoin:miter;stroke-opacity:1"
       id="text4479">
      <path
         d="m 322.38281,122.22656 0,7.77344 -3.53515,0 0,-5.47852 q 0,-0.80078 -0.0391,-1.35742 -0.0391,-0.5664 -0.21484,-0.91797 -0.17578,-0.35156 -0.53711,-0.50781 -0.35156,-0.16601 -0.99609,-0.16601 -0.51758,0 -1.00586,0.21484 -0.48828,0.20508 -0.87891,0.43945 l 0,7.77344 -3.51562,0 0,-10.9668 3.51562,0 0,1.21094 q 0.9082,-0.71289 1.73828,-1.11328 0.83008,-0.40039 1.83594,-0.40039 1.08398,0 1.91406,0.48828 0.83008,0.47852 1.29883,1.41602 1.05469,-0.88868 2.05078,-1.39649 0.9961,-0.50781 1.95313,-0.50781 1.77734,0 2.69531,1.06445 0.92773,1.06446 0.92773,3.06641 l 0,7.13867 -3.53515,0 0,-5.47852 q 0,-0.81054 -0.0391,-1.36718 -0.0293,-0.55664 -0.20507,-0.90821 -0.16602,-0.35156 -0.52735,-0.50781 -0.36133,-0.16601 -1.01562,-0.16601 -0.43946,0 -0.85938,0.15625 -0.41992,0.14648 -1.02539,0.49804 z"
         style="font-style:normal;font-variant:normal;font-weight:bold;font-stretch:normal;line-height:100%;font-family:sans-serif;-inkscape-font-specification:'sans-serif Bold'"
         id="path4543" />
      <path
         d="m 339.47266,127.13867 0,-2.28515 q -0.71289,0.0586 -1.54297,0.16601 -0.83008,0.0977 -1.25977,0.23438 -0.52734,0.16601 -0.81055,0.48828 -0.27343,0.3125 -0.27343,0.83008 0,0.34179 0.0586,0.55664 0.0586,0.21484 0.29297,0.41015 0.22461,0.19532 0.53711,0.29297 0.3125,0.0879 0.97656,0.0879 0.52735,0 1.06445,-0.21484 0.54688,-0.21485 0.95704,-0.56641 z m 0,1.69922 q -0.28321,0.21484 -0.70313,0.51758 -0.41992,0.30273 -0.79101,0.47851 -0.51758,0.23438 -1.07422,0.3418 -0.55664,0.11719 -1.22071,0.11719 -1.5625,0 -2.61718,-0.9668 -1.05469,-0.9668 -1.05469,-2.4707 0,-1.20117 0.53711,-1.96289 0.53711,-0.76172 1.52344,-1.20117 0.97656,-0.43946 2.42187,-0.625 1.44531,-0.18555 2.99805,-0.27344 l 0,-0.0586 q 0,-0.90821 -0.74219,-1.25 -0.74219,-0.35157 -2.1875,-0.35157 -0.86914,0 -1.85547,0.3125 -0.98633,0.30274 -1.41601,0.46875 l -0.32227,0 0,-2.64648 q 0.55664,-0.14649 1.80664,-0.3418 1.25977,-0.20508 2.51953,-0.20508 2.99805,0 4.32617,0.92774 1.33789,0.91797 1.33789,2.89062 l 0,7.46094 -3.48632,0 0,-1.16211 z"
         style="font-style:normal;font-variant:normal;font-weight:bold;font-stretch:normal;line-height:100%;font-family:sans-serif;-inkscape-font-specification:'sans-serif Bold'"
         id="path4545" />
      <path
         d="m 355.72266,126.52344 q 0,1.69922 -1.52344,2.74414 -1.52344,1.03515 -4.16992,1.03515 -1.46485,0 -2.65625,-0.27343 -1.19141,-0.27344 -1.91407,-0.60547 l 0,-2.89063 0.32227,0 q 0.26367,0.18555 0.60547,0.41016 0.35156,0.21484 0.98633,0.46875 0.54687,0.22461 1.24023,0.39062 0.69336,0.15625 1.48438,0.15625 1.03515,0 1.5332,-0.2246 0.49805,-0.23438 0.49805,-0.6836 0,-0.40039 -0.29297,-0.57617 -0.29297,-0.18555 -1.11328,-0.35156 -0.39063,-0.0879 -1.06446,-0.18555 -0.66406,-0.10742 -1.21093,-0.25391 -1.49415,-0.39062 -2.2168,-1.21093 -0.72266,-0.83008 -0.72266,-2.06055 0,-1.58203 1.49414,-2.62695 1.50391,-1.05469 4.10157,-1.05469 1.23046,0 2.35351,0.25391 1.13281,0.24414 1.76758,0.52734 l 0,2.77344 -0.30274,0 q -0.78125,-0.53711 -1.7871,-0.86914 -0.9961,-0.3418 -2.02149,-0.3418 -0.84961,0 -1.43555,0.23437 -0.57617,0.23438 -0.57617,0.66407 0,0.39062 0.26367,0.5957 0.26368,0.20508 1.24024,0.41016 0.53711,0.10742 1.15234,0.21484 0.625,0.0977 1.25,0.25391 1.38672,0.36132 2.05078,1.14257 0.66407,0.77149 0.66407,1.9336 z"
         style="font-style:normal;font-variant:normal;font-weight:bold;font-stretch:normal;line-height:100%;font-family:sans-serif;-inkscape-font-specification:'sans-serif Bold'"
         id="path4547" />
      <path
         d="m 365.07812,129.90234 q -0.5664,0.14649 -1.20117,0.22461 -0.63476,0.0879 -1.55273,0.0879 -2.05078,0 -3.05664,-0.83007 -0.9961,-0.83008 -0.9961,-2.8418 l 0,-5.12695 -1.44531,0 0,-2.38282 1.44531,0 0,-3.13476 3.51563,0 0,3.13476 3.29101,0 0,2.38282 -3.29101,0 0,3.88671 q 0,0.57618 0.01,1.00586 0.01,0.42969 0.15625,0.77149 0.13672,0.3418 0.47852,0.54687 0.35156,0.19532 1.01563,0.19532 0.27343,0 0.71289,-0.11719 0.44921,-0.11719 0.625,-0.21485 l 0.29296,0 0,2.41211 z"
         style="font-style:normal;font-variant:normal;font-weight:bold;font-stretch:normal;line-height:100%;font-family:sans-serif;-inkscape-font-specification:'sans-serif Bold'"
         id="path4549" />
      <path
         d="m 377.96875,125.16602 -8.04688,0 q 0.0781,1.28906 0.97657,1.97265 0.9082,0.6836 2.66601,0.6836 1.11328,0 2.15821,-0.40039 1.04492,-0.4004 1.65039,-0.85938 l 0.39062,0 0,2.82227 q -1.1914,0.47851 -2.24609,0.69335 -1.05469,0.21485 -2.33399,0.21485 -3.30078,0 -5.05859,-1.48438 -1.75781,-1.48437 -1.75781,-4.22851 0,-2.71485 1.66015,-4.29688 1.66993,-1.59179 4.57032,-1.59179 2.67578,0 4.02343,1.35742 1.34766,1.34765 1.34766,3.88672 l 0,1.23047 z m -3.49609,-2.06055 q -0.0293,-1.10352 -0.54688,-1.66016 -0.51758,-0.55664 -1.61133,-0.55664 -1.01562,0 -1.66992,0.52735 -0.6543,0.52734 -0.73242,1.68945 l 4.56055,0 z"
         style="font-style:normal;font-variant:normal;font-weight:bold;font-stretch:normal;line-height:100%;font-family:sans-serif;-inkscape-font-specification:'sans-serif Bold'"
         id="path4551" />
      <path
         d="m 388.39844,122.38281 -0.3125,0 q -0.22461,-0.0781 -0.72266,-0.11718 -0.49805,-0.0391 -0.83008,-0.0391 -0.75195,0 -1.32812,0.0977 -0.57617,0.0977 -1.24024,0.33203 l 0,7.34375 -3.51562,0 0,-10.9668 3.51562,0 0,1.61133 q 1.16211,-0.99609 2.02149,-1.31836 0.85937,-0.33203 1.58203,-0.33203 0.18555,0 0.41992,0.01 0.23438,0.01 0.41016,0.0293 l 0,3.34961 z"
         style="font-style:normal;font-variant:normal;font-weight:bold;font-stretch:normal;line-height:100%;font-family:sans-serif;-inkscape-font-specification:'sans-serif Bold'"
         id="path4553" />
      <path
         d="m 322.51953,162.39441 q 0,0.84961 -0.40039,1.67968 -0.39062,0.83008 -1.10352,1.40625 -0.78125,0.625 -1.82617,0.97657 -1.03515,0.35156 -2.5,0.35156 -1.57226,0 -2.83203,-0.29297 -1.25,-0.29297 -2.54883,-0.86914 l 0,-2.42188 0.13672,0 q 1.10352,0.91797 2.54883,1.41602 1.44531,0.49805 2.71484,0.49805 1.79688,0 2.79297,-0.67383 1.00586,-0.67383 1.00586,-1.79688 0,-0.96679 -0.47851,-1.42578 -0.46875,-0.45898 -1.43555,-0.71289 -0.73242,-0.19531 -1.5918,-0.32226 -0.84961,-0.12696 -1.80664,-0.32227 -1.93359,-0.41016 -2.87109,-1.39648 -0.92774,-0.9961 -0.92774,-2.58789 0,-1.82618 1.54297,-2.98829 1.54297,-1.17187 3.91602,-1.17187 1.5332,0 2.8125,0.29297 1.2793,0.29297 2.26562,0.72265 l 0,2.28516 -0.13672,0 q -0.83007,-0.70312 -2.1875,-1.16211 -1.34765,-0.46875 -2.76367,-0.46875 -1.55273,0 -2.5,0.64453 -0.9375,0.64453 -0.9375,1.66016 0,0.9082 0.46875,1.42578 0.46875,0.51758 1.65039,0.79102 0.625,0.13671 1.77735,0.33203 1.15234,0.19531 1.95312,0.40039 1.6211,0.42969 2.44141,1.29883 0.82031,0.86914 0.82031,2.43164 z"
         style="line-height:200%"
         id="path4555" />
      <path
         d="m 336.85547,165.49011 q -0.53711,0.23437 -0.97656,0.43945 -0.42969,0.20508 -1.13282,0.42969 -0.5957,0.18555 -1.29882,0.3125 -0.69336,0.13672 -1.53321,0.13672 -1.58203,0 -2.88086,-0.43945 -1.28906,-0.44922 -2.24609,-1.39649 -0.9375,-0.92773 -1.46484,-2.35351 -0.52735,-1.43555 -0.52735,-3.33008 0,-1.79688 0.50781,-3.21289 0.50782,-1.41602 1.46485,-2.39258 0.92773,-0.94727 2.23633,-1.44531 1.31836,-0.49805 2.91992,-0.49805 1.17187,0 2.33398,0.2832 1.17188,0.28321 2.59766,0.9961 l 0,2.29492 -0.14649,0 q -1.20117,-1.00586 -2.38281,-1.46485 -1.18164,-0.45898 -2.5293,-0.45898 -1.10351,0 -1.99218,0.36133 -0.87891,0.35156 -1.57227,1.10351 -0.67383,0.73243 -1.05469,1.85547 -0.37109,1.11328 -0.37109,2.57813 0,1.5332 0.41016,2.63672 0.41992,1.10351 1.07422,1.79687 0.68359,0.72266 1.59179,1.07422 0.91797,0.3418 1.9336,0.3418 1.39648,0 2.61718,-0.47852 1.22071,-0.47851 2.28516,-1.43555 l 0.13672,0 0,2.26563 z"
         style="line-height:200%"
         id="path4557" />
      <path
         d="m 348.80859,166.5448 -9.19922,0 0,-14.54102 1.9336,0 0,12.82227 7.26562,0 0,1.71875 z"
         style="line-height:200%"
         id="path4559" />
      <path
         d="m 362.43164,166.5448 -2.50977,0 -5.75195,-6.47461 -1.44531,1.54297 0,4.93164 -1.93359,0 0,-14.54102 1.93359,0 0,7.58789 7.06055,-7.58789 2.34375,0 -6.49414,6.83594 6.79687,7.70508 z"
         style="line-height:200%"
         id="path4561" />
      <path
         d="m 377.8418,157.99011 q 1.29882,1.41602 2.24609,2.1582 0.94727,0.73242 1.78711,1.09375 l 0,0.43946 q -0.9668,0.46875 -1.875,1.20117 -0.9082,0.72265 -2.16797,2.1289 l -0.75195,0 q 0.91797,-1.96289 1.92383,-3.01757 l -15.57618,0 0,-0.98633 15.57618,0 q -0.74219,-0.94727 -1.03516,-1.40625 -0.29297,-0.45899 -0.86914,-1.61133 l 0.74219,0 z"
         style="line-height:200%"
         id="path4563" />
      <path
         d="m 324.90234,191.59915 -1.93359,0 0,-12.5293 -4.04297,8.52539 -1.15234,0 -4.01367,-8.52539 0,12.5293 -1.80665,0 0,-14.54102 2.63672,0 3.87696,8.09571 3.75,-8.09571 2.68554,0 0,14.54102 z"
         style="line-height:100%"
         id="path4565" />
      <path
         d="m 339.66797,178.72805 q 0.88867,0.97657 1.35742,2.39258 0.47852,1.41602 0.47852,3.21289 0,1.79688 -0.48829,3.22266 -0.47851,1.41602 -1.34765,2.36328 -0.89844,0.98633 -2.12891,1.48438 -1.2207,0.49804 -2.79297,0.49804 -1.5332,0 -2.79297,-0.50781 -1.25,-0.50781 -2.1289,-1.47461 -0.87891,-0.9668 -1.35742,-2.37305 -0.46875,-1.40625 -0.46875,-3.21289 0,-1.77734 0.46875,-3.18359 0.46875,-1.41602 1.36718,-2.42188 0.85938,-0.95703 2.12891,-1.46484 1.2793,-0.50781 2.7832,-0.50781 1.5625,0 2.80274,0.51758 1.25,0.50781 2.11914,1.45507 z m -0.17578,5.60547 q 0,-2.83203 -1.26953,-4.36523 -1.26954,-1.54297 -3.4668,-1.54297 -2.2168,0 -3.48633,1.54297 -1.25976,1.5332 -1.25976,4.36523 0,2.86133 1.28906,4.38477 1.28906,1.51367 3.45703,1.51367 2.16797,0 3.44726,-1.51367 1.28907,-1.52344 1.28907,-4.38477 z"
         style="line-height:100%"
         id="path4567" />
      <path
         d="m 355.13672,187.44876 q 0,0.84961 -0.40039,1.67969 -0.39063,0.83007 -1.10352,1.40625 -0.78125,0.625 -1.82617,0.97656 -1.03516,0.35156 -2.5,0.35156 -1.57227,0 -2.83203,-0.29297 -1.25,-0.29297 -2.54883,-0.86914 l 0,-2.42187 0.13672,0 q 1.10352,0.91796 2.54883,1.41601 1.44531,0.49805 2.71484,0.49805 1.79688,0 2.79297,-0.67383 1.00586,-0.67383 1.00586,-1.79687 0,-0.9668 -0.47852,-1.42579 -0.46875,-0.45898 -1.43554,-0.71289 -0.73242,-0.19531 -1.5918,-0.32226 -0.84961,-0.12696 -1.80664,-0.32227 -1.93359,-0.41015 -2.87109,-1.39648 -0.92774,-0.9961 -0.92774,-2.58789 0,-1.82617 1.54297,-2.98828 1.54297,-1.17188 3.91602,-1.17188 1.5332,0 2.8125,0.29297 1.27929,0.29297 2.26562,0.72266 l 0,2.28515 -0.13672,0 q -0.83008,-0.70312 -2.1875,-1.16211 -1.34765,-0.46875 -2.76367,-0.46875 -1.55273,0 -2.5,0.64453 -0.9375,0.64454 -0.9375,1.66016 0,0.9082 0.46875,1.42578 0.46875,0.51758 1.65039,0.79102 0.625,0.13672 1.77734,0.33203 1.15235,0.19531 1.95313,0.40039 1.62109,0.42969 2.44141,1.29883 0.82031,0.86914 0.82031,2.43164 z"
         style="line-height:100%"
         id="path4569" />
      <path
         d="m 363.36914,191.59915 -5.74219,0 0,-1.48438 1.9043,0 0,-11.57226 -1.9043,0 0,-1.48438 5.74219,0 0,1.48438 -1.9043,0 0,11.57226 1.9043,0 0,1.48438 z"
         style="line-height:100%"
         id="path4571" />
      <path
         d="m 379.91211,183.04446 q 1.29883,1.41602 2.24609,2.1582 0.94727,0.73243 1.78711,1.09375 l 0,0.43946 q -0.96679,0.46875 -1.875,1.20117 -0.9082,0.72266 -2.16797,2.12891 l -0.75195,0 q 0.91797,-1.9629 1.92383,-3.01758 l -15.57617,0 0,-0.98633 15.57617,0 q -0.74219,-0.94727 -1.03516,-1.40625 -0.29297,-0.45899 -0.86914,-1.61133 l 0.74219,0 z"
         style="line-height:100%"
         id="path4573" />
      <path
         d="m 318.39844,197.20341 -7.00196,18.16406 -1.68945,0 6.97266,-18.16406 1.71875,0 z"
         style="line-height:100%"
         id="path4575" />
      <path
         d="m 331.62109,208.24833 q 0,0.84961 -0.40039,1.67969 -0.39062,0.83008 -1.10351,1.40625 -0.78125,0.625 -1.82617,0.97656 -1.03516,0.35156 -2.5,0.35156 -1.57227,0 -2.83204,-0.29296 -1.25,-0.29297 -2.54882,-0.86914 l 0,-2.42188 0.13671,0 q 1.10352,0.91797 2.54883,1.41602 1.44532,0.49804 2.71485,0.49804 1.79687,0 2.79297,-0.67383 1.00585,-0.67382 1.00585,-1.79687 0,-0.9668 -0.47851,-1.42578 -0.46875,-0.45899 -1.43555,-0.71289 -0.73242,-0.19531 -1.59179,-0.32227 -0.84961,-0.12695 -1.80665,-0.32226 -1.93359,-0.41016 -2.87109,-1.39649 -0.92773,-0.99609 -0.92773,-2.58789 0,-1.82617 1.54297,-2.98828 1.54296,-1.17187 3.91601,-1.17187 1.5332,0 2.8125,0.29296 1.2793,0.29297 2.26563,0.72266 l 0,2.28516 -0.13672,0 q -0.83008,-0.70313 -2.1875,-1.16211 -1.34766,-0.46875 -2.76367,-0.46875 -1.55274,0 -2.5,0.64453 -0.9375,0.64453 -0.9375,1.66015 0,0.90821 0.46875,1.42579 0.46875,0.51757 1.65039,0.79101 0.625,0.13672 1.77734,0.33203 1.15234,0.19532 1.95312,0.40039 1.6211,0.42969 2.44141,1.29883 0.82031,0.86914 0.82031,2.43164 z"
         style="line-height:100%"
         id="path4577" />
      <path
         d="m 345.09766,208.24833 q 0,0.84961 -0.40039,1.67969 -0.39063,0.83008 -1.10352,1.40625 -0.78125,0.625 -1.82617,0.97656 -1.03516,0.35156 -2.5,0.35156 -1.57227,0 -2.83203,-0.29296 -1.25,-0.29297 -2.54883,-0.86914 l 0,-2.42188 0.13672,0 q 1.10351,0.91797 2.54883,1.41602 1.44531,0.49804 2.71484,0.49804 1.79687,0 2.79297,-0.67383 1.00586,-0.67382 1.00586,-1.79687 0,-0.9668 -0.47852,-1.42578 -0.46875,-0.45899 -1.43555,-0.71289 -0.73242,-0.19531 -1.59179,-0.32227 -0.84961,-0.12695 -1.80664,-0.32226 -1.9336,-0.41016 -2.8711,-1.39649 -0.92773,-0.99609 -0.92773,-2.58789 0,-1.82617 1.54297,-2.98828 1.54297,-1.17187 3.91601,-1.17187 1.53321,0 2.8125,0.29296 1.2793,0.29297 2.26563,0.72266 l 0,2.28516 -0.13672,0 q -0.83008,-0.70313 -2.1875,-1.16211 -1.34766,-0.46875 -2.76367,-0.46875 -1.55274,0 -2.5,0.64453 -0.9375,0.64453 -0.9375,1.66015 0,0.90821 0.46875,1.42579 0.46875,0.51757 1.65039,0.79101 0.625,0.13672 1.77734,0.33203 1.15235,0.19532 1.95313,0.40039 1.62109,0.42969 2.4414,1.29883 0.82032,0.86914 0.82032,2.43164 z"
         style="line-height:100%"
         id="path4579" />
      <path
         d="m 361.43555,203.84404 q 1.29882,1.41601 2.24609,2.1582 0.94727,0.73242 1.78711,1.09375 l 0,0.43945 q -0.9668,0.46875 -1.875,1.20117 -0.9082,0.72266 -2.16797,2.12891 l -0.75195,0 q 0.91797,-1.96289 1.92383,-3.01758 l -15.57618,0 0,-0.98633 15.57618,0 q -0.74219,-0.94726 -1.03516,-1.40625 -0.29297,-0.45898 -0.86914,-1.61132 l 0.74219,0 z"
         style="line-height:100%"
         id="path4581" />
    </g>
    <g
       style="font-style:normal;font-weight:normal;font-size:20px;line-height:200%;font-family:sans-serif;text-align:end;letter-spacing:0px;word-spacing:0px;text-anchor:end;fill:#000000;fill-opacity:1;stroke:none;stroke-width:1px;stroke-linecap:butt;stroke-linejoin:miter;stroke-opacity:1"
       id="text4489">
      <path
         d="m 442.83203,126.52344 q 0,1.69922 -1.52344,2.74414 -1.52343,1.03515 -4.16992,1.03515 -1.46484,0 -2.65625,-0.27343 -1.1914,-0.27344 -1.91406,-0.60547 l 0,-2.89063 0.32226,0 q 0.26368,0.18555 0.60547,0.41016 0.35157,0.21484 0.98633,0.46875 0.54688,0.22461 1.24024,0.39062 0.69336,0.15625 1.48437,0.15625 1.03516,0 1.5332,-0.2246 0.49805,-0.23438 0.49805,-0.6836 0,-0.40039 -0.29297,-0.57617 -0.29297,-0.18555 -1.11328,-0.35156 -0.39062,-0.0879 -1.06445,-0.18555 -0.66406,-0.10742 -1.21094,-0.25391 -1.49414,-0.39062 -2.2168,-1.21093 -0.72265,-0.83008 -0.72265,-2.06055 0,-1.58203 1.49414,-2.62695 1.5039,-1.05469 4.10156,-1.05469 1.23047,0 2.35352,0.25391 1.13281,0.24414 1.76757,0.52734 l 0,2.77344 -0.30273,0 q -0.78125,-0.53711 -1.78711,-0.86914 -0.99609,-0.3418 -2.02148,-0.3418 -0.84961,0 -1.43555,0.23437 -0.57617,0.23438 -0.57617,0.66407 0,0.39062 0.26367,0.5957 0.26367,0.20508 1.24023,0.41016 0.53711,0.10742 1.15235,0.21484 0.625,0.0977 1.25,0.25391 1.38672,0.36132 2.05078,1.14257 0.66406,0.77149 0.66406,1.9336 z"
         style="font-style:normal;font-variant:normal;font-weight:bold;font-stretch:normal;line-height:100%;font-family:sans-serif;-inkscape-font-specification:'sans-serif Bold'"
         id="path4584" />
      <path
         d="m 448.69141,130 -3.51563,0 0,-15.19531 3.51563,0 0,15.19531 z"
         style="font-style:normal;font-variant:normal;font-weight:bold;font-stretch:normal;line-height:100%;font-family:sans-serif;-inkscape-font-specification:'sans-serif Bold'"
         id="path4586" />
      <path
         d="m 458.65234,127.13867 0,-2.28515 q -0.71289,0.0586 -1.54297,0.16601 -0.83007,0.0977 -1.25976,0.23438 -0.52734,0.16601 -0.81055,0.48828 -0.27344,0.3125 -0.27344,0.83008 0,0.34179 0.0586,0.55664 0.0586,0.21484 0.29297,0.41015 0.22461,0.19532 0.53711,0.29297 0.3125,0.0879 0.97656,0.0879 0.52734,0 1.06445,-0.21484 0.54688,-0.21485 0.95703,-0.56641 z m 0,1.69922 q -0.2832,0.21484 -0.70312,0.51758 -0.41992,0.30273 -0.79102,0.47851 -0.51758,0.23438 -1.07422,0.3418 -0.55664,0.11719 -1.2207,0.11719 -1.5625,0 -2.61719,-0.9668 -1.05468,-0.9668 -1.05468,-2.4707 0,-1.20117 0.53711,-1.96289 0.5371,-0.76172 1.52343,-1.20117 0.97657,-0.43946 2.42188,-0.625 1.44531,-0.18555 2.99804,-0.27344 l 0,-0.0586 q 0,-0.90821 -0.74218,-1.25 -0.74219,-0.35157 -2.1875,-0.35157 -0.86914,0 -1.85547,0.3125 -0.98633,0.30274 -1.41602,0.46875 l -0.32226,0 0,-2.64648 q 0.55664,-0.14649 1.80664,-0.3418 1.25976,-0.20508 2.51953,-0.20508 2.99805,0 4.32617,0.92774 1.33789,0.91797 1.33789,2.89062 l 0,7.46094 -3.48633,0 0,-1.16211 z"
         style="font-style:normal;font-variant:normal;font-weight:bold;font-stretch:normal;line-height:100%;font-family:sans-serif;-inkscape-font-specification:'sans-serif Bold'"
         id="path4588" />
      <path
         d="M 476.41602,119.0332 472.1875,130 l -3.98438,0 -4.19921,-10.9668 3.7207,0 2.53906,7.53907 2.50977,-7.53907 3.64258,0 z"
         style="font-style:normal;font-variant:normal;font-weight:bold;font-stretch:normal;line-height:100%;font-family:sans-serif;-inkscape-font-specification:'sans-serif Bold'"
         id="path4590" />
      <path
         d="m 489.17969,125.16602 -8.04688,0 q 0.0781,1.28906 0.97656,1.97265 0.90821,0.6836 2.66602,0.6836 1.11328,0 2.1582,-0.40039 1.04493,-0.4004 1.65039,-0.85938 l 0.39063,0 0,2.82227 q -1.19141,0.47851 -2.24609,0.69335 -1.05469,0.21485 -2.33399,0.21485 -3.30078,0 -5.05859,-1.48438 -1.75782,-1.48437 -1.75782,-4.22851 0,-2.71485 1.66016,-4.29688 1.66992,-1.59179 4.57031,-1.59179 2.67578,0 4.02344,1.35742 1.34766,1.34765 1.34766,3.88672 l 0,1.23047 z m -3.4961,-2.06055 q -0.0293,-1.10352 -0.54687,-1.66016 -0.51758,-0.55664 -1.61133,-0.55664 -1.01562,0 -1.66992,0.52735 -0.6543,0.52734 -0.73242,1.68945 l 4.56054,0 z"
         style="font-style:normal;font-variant:normal;font-weight:bold;font-stretch:normal;line-height:100%;font-family:sans-serif;-inkscape-font-specification:'sans-serif Bold'"
         id="path4592" />
      <path
         d="m 420.07812,157.99011 0.74219,0 q -0.57617,1.15234 -0.86914,1.62109 -0.2832,0.45899 -1.03515,1.39649 l 15.57617,0 0,0.98633 -15.57617,0 q 1.01562,1.05468 1.93359,3.01757 l -0.76172,0 q -1.25977,-1.40625 -2.16797,-2.1289 -0.9082,-0.73242 -1.875,-1.20117 l 0,-0.43946 q 0.84961,-0.36133 1.79688,-1.10351 0.94726,-0.74219 2.23632,-2.14844 z"
         style="line-height:200%"
         id="path4594" />
      <path
         d="m 450.17578,166.5448 -1.93359,0 0,-12.5293 -4.04297,8.52539 -1.15235,0 -4.01367,-8.52539 0,12.5293 -1.80664,0 0,-14.54102 2.63672,0 3.87695,8.0957 3.75,-8.0957 2.68555,0 0,14.54102 z"
         style="line-height:200%"
         id="path4596" />
      <path
         d="m 459.22852,166.5448 -5.74219,0 0,-1.48438 1.90429,0 0,-11.57226 -1.90429,0 0,-1.48438 5.74219,0 0,1.48438 -1.9043,0 0,11.57226 1.9043,0 0,1.48438 z"
         style="line-height:200%"
         id="path4598" />
      <path
         d="m 473.10547,162.39441 q 0,0.84961 -0.40039,1.67968 -0.39063,0.83008 -1.10352,1.40625 -0.78125,0.625 -1.82617,0.97657 -1.03516,0.35156 -2.5,0.35156 -1.57227,0 -2.83203,-0.29297 -1.25,-0.29297 -2.54883,-0.86914 l 0,-2.42188 0.13672,0 q 1.10352,0.91797 2.54883,1.41602 1.44531,0.49805 2.71484,0.49805 1.79688,0 2.79297,-0.67383 1.00586,-0.67383 1.00586,-1.79688 0,-0.96679 -0.47852,-1.42578 -0.46875,-0.45898 -1.43554,-0.71289 -0.73242,-0.19531 -1.5918,-0.32226 -0.84961,-0.12696 -1.80664,-0.32227 -1.93359,-0.41016 -2.87109,-1.39648 -0.92774,-0.9961 -0.92774,-2.58789 0,-1.82618 1.54297,-2.98829 1.54297,-1.17187 3.91602,-1.17187 1.5332,0 2.8125,0.29297 1.27929,0.29297 2.26562,0.72265 l 0,2.28516 -0.13672,0 q -0.83008,-0.70312 -2.1875,-1.16211 -1.34765,-0.46875 -2.76367,-0.46875 -1.55273,0 -2.5,0.64453 -0.9375,0.64453 -0.9375,1.66016 0,0.9082 0.46875,1.42578 0.46875,0.51758 1.65039,0.79102 0.625,0.13671 1.77734,0.33203 1.15235,0.19531 1.95313,0.40039 1.62109,0.42969 2.44141,1.29883 0.82031,0.86914 0.82031,2.43164 z"
         style="line-height:200%"
         id="path4600" />
      <path
         d="m 487.05078,153.6737 q 0.88867,0.97657 1.35742,2.39258 0.47852,1.41602 0.47852,3.21289 0,1.79688 -0.48828,3.22266 -0.47852,1.41601 -1.34766,2.36328 -0.89844,0.98633 -2.12891,1.48437 -1.2207,0.49805 -2.79296,0.49805 -1.53321,0 -2.79297,-0.50781 -1.25,-0.50781 -2.12891,-1.47461 -0.87891,-0.9668 -1.35742,-2.37305 -0.46875,-1.40625 -0.46875,-3.21289 0,-1.77734 0.46875,-3.18359 0.46875,-1.41602 1.36719,-2.42188 0.85937,-0.95703 2.1289,-1.46484 1.2793,-0.50781 2.78321,-0.50781 1.5625,0 2.80273,0.51758 1.25,0.50781 2.11914,1.45507 z m -0.17578,5.60547 q 0,-2.83203 -1.26953,-4.36523 -1.26953,-1.54297 -3.4668,-1.54297 -2.2168,0 -3.48633,1.54297 -1.25976,1.5332 -1.25976,4.36523 0,2.86133 1.28906,4.38477 1.28906,1.51367 3.45703,1.51367 2.16797,0 3.44727,-1.51367 1.28906,-1.52344 1.28906,-4.38477 z"
         style="line-height:200%"
         id="path4602" />
    </g>
    <g
       style="font-style:normal;font-weight:normal;font-size:20px;line-height:125%;font-family:sans-serif;text-align:end;letter-spacing:0px;word-spacing:0px;text-anchor:end;fill:#000000;fill-opacity:1;stroke:none;stroke-width:1px;stroke-linecap:butt;stroke-linejoin:miter;stroke-opacity:1"
       id="text4495">
      <path
         d="m 32.8125,121.44531 0.742187,0 q -0.576171,1.15235 -0.86914,1.6211 -0.283203,0.45898 -1.035156,1.39648 l 15.576171,0 0,0.98633 -15.576171,0 q 1.015625,1.05469 1.933593,3.01758 l -0.761718,0 q -1.259766,-1.40625 -2.167969,-2.12891 -0.908203,-0.73242 -1.875,-1.20117 l 0,-0.43945 q 0.849609,-0.36133 1.796875,-1.10352 0.947265,-0.74219 2.236328,-2.14844 z"
         style=""
         id="path4605" />
      <path
         d="m 68.183594,130 -1.992188,0 0,-2.17773 1.992188,0 0,2.17773 z m -5.449219,0 -1.992188,0 0,-2.17773 1.992188,0 0,2.17773 z m -5.449219,0 -1.992187,0 0,-2.17773 1.992187,0 0,2.17773 z"
         style=""
         id="path4607" />
      <path
         d="m 86.552734,126.85547 q 0,1.49414 -1.240234,2.45117 -1.230469,0.95703 -3.369141,0.95703 -1.210937,0 -2.226562,-0.2832 -1.00586,-0.29297 -1.689453,-0.63477 l 0,-2.06054 0.09766,0 q 0.869141,0.65429 1.933594,1.04492 1.064453,0.38086 2.041015,0.38086 1.210938,0 1.894532,-0.39063 0.683593,-0.39062 0.683593,-1.23047 0,-0.64453 -0.371093,-0.97656 -0.371094,-0.33203 -1.425782,-0.5664 -0.390625,-0.0879 -1.02539,-0.20508 -0.625,-0.11719 -1.142578,-0.25391 -1.435547,-0.38086 -2.041016,-1.11328 -0.595703,-0.74219 -0.595703,-1.81641 0,-0.67382 0.273437,-1.26953 0.283203,-0.5957 0.84961,-1.06445 0.546875,-0.45899 1.386718,-0.72266 0.84961,-0.27343 1.894532,-0.27343 0.976562,0 1.972656,0.24414 1.005859,0.23437 1.669922,0.57617 l 0,1.96289 -0.09766,0 q -0.703125,-0.51758 -1.708985,-0.86914 -1.005859,-0.36133 -1.972656,-0.36133 -1.005859,0 -1.699219,0.39062 -0.693359,0.38086 -0.693359,1.14258 0,0.67383 0.419922,1.01563 0.410156,0.34179 1.328125,0.55664 0.507812,0.11719 1.132812,0.23437 0.634766,0.11719 1.054688,0.21485 1.279297,0.29297 1.972656,1.00586 0.693359,0.72265 0.693359,1.91406 z"
         style=""
         id="path4609" />
      <path
         d="m 98.320312,124.73633 -8.037109,0 q 0,1.00586 0.302734,1.75781 0.302735,0.74219 0.830079,1.2207 0.507812,0.46875 1.201171,0.70313 0.703125,0.23437 1.542969,0.23437 1.113281,0 2.236328,-0.43945 1.132813,-0.44922 1.611328,-0.87891 l 0.09766,0 0,2.00196 q -0.927735,0.39062 -1.894532,0.65429 -0.966796,0.26368 -2.03125,0.26368 -2.714843,0 -4.238281,-1.46485 -1.523437,-1.47461 -1.523437,-4.17968 0,-2.67579 1.455078,-4.24805 1.464844,-1.57227 3.847656,-1.57227 2.207031,0 3.398438,1.28907 1.201171,1.28906 1.201171,3.6621 l 0,0.9961 z m -1.787109,-1.40625 q -0.0098,-1.44531 -0.732422,-2.23633 -0.71289,-0.79102 -2.177734,-0.79102 -1.47461,0 -2.353516,0.86915 -0.86914,0.86914 -0.986328,2.1582 l 6.25,0 z"
         style=""
         id="path4611" />
      <path
         d="m 107.91016,121.09375 -0.0977,0 q -0.41016,-0.0977 -0.80078,-0.13672 -0.38086,-0.0488 -0.9082,-0.0488 -0.84961,0 -1.64063,0.38086 -0.79101,0.3711 -1.52344,0.9668 l 0,7.74414 -1.83593,0 0,-10.9082 1.83593,0 0,1.61133 q 1.09375,-0.87891 1.92383,-1.24024 0.83985,-0.37109 1.70899,-0.37109 0.47851,0 0.69336,0.0293 0.21484,0.0195 0.64453,0.0879 l 0,1.88477 z"
         style=""
         id="path4613" />
      <path
         d="M 119.0918,119.0918 114.67773,130 l -1.8457,0 -4.38476,-10.9082 1.99218,0 3.37891,8.68164 3.34961,-8.68164 1.92383,0 z"
         style=""
         id="path4615" />
      <path
         d="m 130.46875,124.73633 -8.03711,0 q 0,1.00586 0.30274,1.75781 0.30273,0.74219 0.83007,1.2207 0.50782,0.46875 1.20118,0.70313 0.70312,0.23437 1.54296,0.23437 1.11329,0 2.23633,-0.43945 1.13281,-0.44922 1.61133,-0.87891 l 0.0977,0 0,2.00196 q -0.92774,0.39062 -1.89454,0.65429 -0.96679,0.26368 -2.03124,0.26368 -2.71485,0 -4.23829,-1.46485 -1.52343,-1.47461 -1.52343,-4.17968 0,-2.67579 1.45507,-4.24805 1.46485,-1.57227 3.84766,-1.57227 2.20703,0 3.39844,1.28907 1.20117,1.28906 1.20117,3.6621 l 0,0.9961 z m -1.78711,-1.40625 q -0.01,-1.44531 -0.73242,-2.23633 -0.71289,-0.79102 -2.17774,-0.79102 -1.4746,0 -2.35351,0.86915 -0.86914,0.86914 -0.98633,2.1582 l 6.25,0 z"
         style=""
         id="path4617" />
      <path
         d="m 140.05859,121.09375 -0.0977,0 q -0.41016,-0.0977 -0.80078,-0.13672 -0.38086,-0.0488 -0.90821,-0.0488 -0.84961,0 -1.64062,0.38086 -0.79102,0.3711 -1.52344,0.9668 l 0,7.74414 -1.83594,0 0,-10.9082 1.83594,0 0,1.61133 q 1.09375,-0.87891 1.92383,-1.24024 0.83984,-0.37109 1.70898,-0.37109 0.47852,0 0.69336,0.0293 0.21485,0.0195 0.64453,0.0879 l 0,1.88477 z"
         style=""
         id="path4619" />
    </g>
    <g
       style="font-style:normal;font-weight:normal;font-size:20px;line-height:125%;font-family:sans-serif;letter-spacing:0px;word-spacing:0px;fill:#000000;fill-opacity:1;stroke:none;stroke-width:1px;stroke-linecap:butt;stroke-linejoin:miter;stroke-opacity:1"
       id="text4499">
      <path
         d="m 669.59961,126.85547 q 0,1.49414 -1.24024,2.45117 -1.23046,0.95703 -3.36914,0.95703 -1.21093,0 -2.22656,-0.2832 -1.00586,-0.29297 -1.68945,-0.63477 l 0,-2.06054 0.0977,0 q 0.86915,0.65429 1.9336,1.04492 1.06445,0.38086 2.04101,0.38086 1.21094,0 1.89454,-0.39063 0.68359,-0.39062 0.68359,-1.23047 0,-0.64453 -0.37109,-0.97656 -0.3711,-0.33203 -1.42579,-0.5664 -0.39062,-0.0879 -1.02539,-0.20508 -0.625,-0.11719 -1.14257,-0.25391 -1.43555,-0.38086 -2.04102,-1.11328 -0.5957,-0.74219 -0.5957,-1.81641 0,-0.67382 0.27343,-1.26953 0.28321,-0.5957 0.84961,-1.06445 0.54688,-0.45899 1.38672,-0.72266 0.84961,-0.27343 1.89453,-0.27343 0.97657,0 1.97266,0.24414 1.00586,0.23437 1.66992,0.57617 l 0,1.96289 -0.0977,0 q -0.70313,-0.51758 -1.70899,-0.86914 -1.00586,-0.36133 -1.97266,-0.36133 -1.00585,0 -1.69921,0.39062 -0.69336,0.38086 -0.69336,1.14258 0,0.67383 0.41992,1.01563 0.41015,0.34179 1.32812,0.55664 0.50782,0.11719 1.13282,0.23437 0.63476,0.11719 1.05468,0.21485 1.2793,0.29297 1.97266,1.00586 0.69336,0.72265 0.69336,1.91406 z"
         style=""
         id="path4622" />
      <path
         d="m 681.36719,124.73633 -8.03711,0 q 0,1.00586 0.30273,1.75781 0.30274,0.74219 0.83008,1.2207 0.50781,0.46875 1.20117,0.70313 0.70313,0.23437 1.54297,0.23437 1.11328,0 2.23633,-0.43945 1.13281,-0.44922 1.61133,-0.87891 l 0.0976,0 0,2.00196 q -0.92773,0.39062 -1.89453,0.65429 -0.96679,0.26368 -2.03125,0.26368 -2.71484,0 -4.23828,-1.46485 -1.52344,-1.47461 -1.52344,-4.17968 0,-2.67579 1.45508,-4.24805 1.46485,-1.57227 3.84766,-1.57227 2.20703,0 3.39844,1.28907 1.20117,1.28906 1.20117,3.6621 l 0,0.9961 z m -1.78711,-1.40625 q -0.01,-1.44531 -0.73242,-2.23633 -0.71289,-0.79102 -2.17774,-0.79102 -1.47461,0 -2.35351,0.86915 -0.86914,0.86914 -0.98633,2.1582 l 6.25,0 z"
         style=""
         id="path4624" />
      <path
         d="m 693.27148,130 -1.83593,0 0,-6.21094 q 0,-0.75195 -0.0879,-1.40625 -0.0879,-0.66406 -0.32227,-1.03515 -0.24414,-0.41016 -0.70312,-0.60547 -0.45899,-0.20508 -1.19141,-0.20508 -0.75195,0 -1.57227,0.37109 -0.82031,0.3711 -1.57226,0.94727 l 0,8.14453 -1.83594,0 0,-10.9082 1.83594,0 0,1.21093 q 0.85937,-0.71289 1.77734,-1.11328 0.91797,-0.40039 1.88477,-0.40039 1.76758,0 2.69531,1.06446 0.92773,1.06445 0.92773,3.0664 l 0,7.08008 z"
         style=""
         id="path4626" />
      <path
         d="m 704.59961,126.85547 q 0,1.49414 -1.24024,2.45117 -1.23046,0.95703 -3.36914,0.95703 -1.21093,0 -2.22656,-0.2832 -1.00586,-0.29297 -1.68945,-0.63477 l 0,-2.06054 0.0977,0 q 0.86915,0.65429 1.9336,1.04492 1.06445,0.38086 2.04101,0.38086 1.21094,0 1.89454,-0.39063 0.68359,-0.39062 0.68359,-1.23047 0,-0.64453 -0.37109,-0.97656 -0.3711,-0.33203 -1.42579,-0.5664 -0.39062,-0.0879 -1.02539,-0.20508 -0.625,-0.11719 -1.14257,-0.25391 -1.43555,-0.38086 -2.04102,-1.11328 -0.5957,-0.74219 -0.5957,-1.81641 0,-0.67382 0.27343,-1.26953 0.28321,-0.5957 0.84961,-1.06445 0.54688,-0.45899 1.38672,-0.72266 0.84961,-0.27343 1.89453,-0.27343 0.97657,0 1.97266,0.24414 1.00586,0.23437 1.66992,0.57617 l 0,1.96289 -0.0977,0 q -0.70313,-0.51758 -1.70899,-0.86914 -1.00586,-0.36133 -1.97266,-0.36133 -1.00585,0 -1.69921,0.39062 -0.69336,0.38086 -0.69336,1.14258 0,0.67383 0.41992,1.01563 0.41015,0.34179 1.32812,0.55664 0.50782,0.11719 1.13282,0.23437 0.63476,0.11719 1.05468,0.21485 1.2793,0.29297 1.97266,1.00586 0.69336,0.72265 0.69336,1.91406 z"
         style=""
         id="path4628" />
      <path
         d="m 716.5332,124.55078 q 0,2.66602 -1.36718,4.20899 -1.36719,1.54296 -3.66211,1.54296 -2.31446,0 -3.68164,-1.54296 -1.35743,-1.54297 -1.35743,-4.20899 0,-2.66601 1.35743,-4.20898 1.36718,-1.55274 3.68164,-1.55274 2.29492,0 3.66211,1.55274 1.36718,1.54297 1.36718,4.20898 z m -1.89453,0 q 0,-2.11914 -0.83008,-3.14453 -0.83007,-1.03516 -2.30468,-1.03516 -1.49414,0 -2.32422,1.03516 -0.82032,1.02539 -0.82032,3.14453 0,2.05078 0.83008,3.11524 0.83008,1.05468 2.31446,1.05468 1.46484,0 2.29492,-1.04492 0.83984,-1.05469 0.83984,-3.125 z"
         style=""
         id="path4630" />
      <path
         d="m 726.19141,121.09375 -0.0977,0 q -0.41016,-0.0977 -0.80078,-0.13672 -0.38086,-0.0488 -0.9082,-0.0488 -0.84961,0 -1.64063,0.38086 -0.79102,0.3711 -1.52344,0.9668 l 0,7.74414 -1.83593,0 0,-10.9082 1.83593,0 0,1.61133 q 1.09375,-0.87891 1.92383,-1.24024 0.83984,-0.37109 1.70899,-0.37109 0.47851,0 0.69335,0.0293 0.21485,0.0195 0.64454,0.0879 l 0,1.88477 z"
         style=""
         id="path4632" />
      <path
         d="m 735.73242,126.85547 q 0,1.49414 -1.24023,2.45117 -1.23047,0.95703 -3.36914,0.95703 -1.21094,0 -2.22657,-0.2832 -1.00586,-0.29297 -1.68945,-0.63477 l 0,-2.06054 0.0977,0 q 0.86914,0.65429 1.93359,1.04492 1.06445,0.38086 2.04102,0.38086 1.21093,0 1.89453,-0.39063 0.68359,-0.39062 0.68359,-1.23047 0,-0.64453 -0.37109,-0.97656 -0.3711,-0.33203 -1.42578,-0.5664 -0.39063,-0.0879 -1.02539,-0.20508 -0.625,-0.11719 -1.14258,-0.25391 -1.43555,-0.38086 -2.04102,-1.11328 -0.5957,-0.74219 -0.5957,-1.81641 0,-0.67382 0.27344,-1.26953 0.2832,-0.5957 0.84961,-1.06445 0.54687,-0.45899 1.38671,-0.72266 0.84961,-0.27343 1.89454,-0.27343 0.97656,0 1.97265,0.24414 1.00586,0.23437 1.66992,0.57617 l 0,1.96289 -0.0977,0 q -0.70313,-0.51758 -1.70899,-0.86914 -1.00586,-0.36133 -1.97265,-0.36133 -1.00586,0 -1.69922,0.39062 -0.69336,0.38086 -0.69336,1.14258 0,0.67383 0.41992,1.01563 0.41016,0.34179 1.32813,0.55664 0.50781,0.11719 1.13281,0.23437 0.63476,0.11719 1.05469,0.21485 1.27929,0.29297 1.97265,1.00586 0.69336,0.72265 0.69336,1.91406 z"
         style=""
         id="path4634" />
      <path
         d="m 758.22266,130 -1.99219,0 0,-2.17773 1.99219,0 0,2.17773 z m -5.44922,0 -1.99219,0 0,-2.17773 1.99219,0 0,2.17773 z m -5.44922,0 -1.99219,0 0,-2.17773 1.99219,0 0,2.17773 z"
         style=""
         id="path4636" />
      <path
         d="m 782.17773,121.44531 q 1.29883,1.41602 2.2461,2.15821 0.94726,0.73242 1.78711,1.09375 l 0,0.43945 q -0.9668,0.46875 -1.875,1.20117 -0.90821,0.72266 -2.16797,2.12891 l -0.75195,0 q 0.91796,-1.96289 1.92382,-3.01758 l -15.57617,0 0,-0.98633 15.57617,0 q -0.74218,-0.94726 -1.03515,-1.40625 -0.29297,-0.45898 -0.86914,-1.61133 l 0.74218,0 z"
         style=""
         id="path4638" />
    </g>
  </g>
</svg>
