<?xml version="1.0" encoding="UTF-8" standalone="no"?>
<!-- Created with Inkscape (http://www.inkscape.org/) -->

<svg
   xmlns:dc="http://purl.org/dc/elements/1.1/"
   xmlns:cc="http://creativecommons.org/ns#"
   xmlns:rdf="http://www.w3.org/1999/02/22-rdf-syntax-ns#"
   xmlns:svg="http://www.w3.org/2000/svg"
   xmlns="http://www.w3.org/2000/svg"
   xmlns:sodipodi="http://sodipodi.sourceforge.net/DTD/sodipodi-0.dtd"
   xmlns:inkscape="http://www.inkscape.org/namespaces/inkscape"
   width="750"
   height="400"
   version="1.1"
   id="svg2"
   inkscape:version="0.91 r13725"
   sodipodi:docname="timing.svg">
  <metadata
     id="metadata10">
    <rdf:RDF>
      <cc:Work
         rdf:about="">
        <dc:format>image/svg+xml</dc:format>
        <dc:type
           rdf:resource="http://purl.org/dc/dcmitype/StillImage" />
        <dc:title></dc:title>
      </cc:Work>
    </rdf:RDF>
  </metadata>
  <defs
     id="defs8">
    <marker
       inkscape:isstock="true"
       style="overflow:visible"
       id="marker5134"
       refX="0"
       refY="0"
       orient="auto"
       inkscape:stockid="StopL">
      <path
         transform="scale(0.8,0.8)"
         style="fill:none;fill-opacity:0.75;fill-rule:evenodd;stroke:#000000;stroke-width:1pt;stroke-opacity:1"
         d="M 0,5.65 0,-5.65"
         id="path5136"
         inkscape:connector-curvature="0" />
    </marker>
    <marker
       inkscape:stockid="StopL"
       orient="auto"
       refY="0"
       refX="0"
       id="StopL"
       style="overflow:visible"
       inkscape:isstock="true"
       inkscape:collect="always">
      <path
         id="path4703"
         d="M 0,5.65 0,-5.65"
         style="fill:none;fill-opacity:0.75;fill-rule:evenodd;stroke:#000000;stroke-width:1pt;stroke-opacity:1"
         transform="scale(0.8,0.8)"
         inkscape:connector-curvature="0" />
    </marker>
    <marker
       inkscape:stockid="Arrow2Lend"
       orient="auto"
       refY="0"
       refX="0"
       id="Arrow2Lend"
       style="overflow:visible"
       inkscape:isstock="true">
      <path
         id="path4555"
         style="fill:#000000;fill-opacity:1;fill-rule:evenodd;stroke:#000000;stroke-width:0.625;stroke-linejoin:round;stroke-opacity:1"
         d="M 8.7185878,4.0337352 -2.2072895,0.01601326 8.7185884,-4.0017078 c -1.7454984,2.3720609 -1.7354408,5.6174519 -6e-7,8.035443 z"
         transform="matrix(-1.1,0,0,-1.1,-1.1,0)"
         inkscape:connector-curvature="0" />
    </marker>
    <marker
       inkscape:stockid="Arrow2Lstart"
       orient="auto"
       refY="0"
       refX="0"
       id="Arrow2Lstart"
       style="overflow:visible"
       inkscape:isstock="true">
      <path
         id="path4552"
         style="fill:#000000;fill-opacity:1;fill-rule:evenodd;stroke:#000000;stroke-width:0.625;stroke-linejoin:round;stroke-opacity:1"
         d="M 8.7185878,4.0337352 -2.2072895,0.01601326 8.7185884,-4.0017078 c -1.7454984,2.3720609 -1.7354408,5.6174519 -6e-7,8.035443 z"
         transform="matrix(1.1,0,0,1.1,1.1,0)"
         inkscape:connector-curvature="0" />
    </marker>
    <marker
       inkscape:stockid="Arrow2Lend"
       orient="auto"
       refY="0"
       refX="0"
       id="Arrow2Lend-9"
       style="overflow:visible"
       inkscape:isstock="true">
      <path
         inkscape:connector-curvature="0"
         id="path4555-8"
         style="fill:#000000;fill-opacity:1;fill-rule:evenodd;stroke:#000000;stroke-width:0.625;stroke-linejoin:round;stroke-opacity:1"
         d="M 8.7185878,4.0337352 -2.2072895,0.01601326 8.7185884,-4.0017078 c -1.7454984,2.3720609 -1.7354408,5.6174519 -6e-7,8.035443 z"
         transform="matrix(-1.1,0,0,-1.1,-1.1,0)" />
    </marker>
    <marker
       inkscape:stockid="Arrow2Lstart"
       orient="auto"
       refY="0"
       refX="0"
       id="Arrow2Lstart-8"
       style="overflow:visible"
       inkscape:isstock="true">
      <path
         inkscape:connector-curvature="0"
         id="path4552-0"
         style="fill:#000000;fill-opacity:1;fill-rule:evenodd;stroke:#000000;stroke-width:0.625;stroke-linejoin:round;stroke-opacity:1"
         d="M 8.7185878,4.0337352 -2.2072895,0.01601326 8.7185884,-4.0017078 c -1.7454984,2.3720609 -1.7354408,5.6174519 -6e-7,8.035443 z"
         transform="matrix(1.1,0,0,1.1,1.1,0)" />
    </marker>
  </defs>
  <sodipodi:namedview
     pagecolor="#ffffff"
     bordercolor="#666666"
     borderopacity="1"
     objecttolerance="10"
     gridtolerance="10"
     guidetolerance="10"
     inkscape:pageopacity="0"
     inkscape:pageshadow="2"
     inkscape:window-width="1366"
     inkscape:window-height="705"
     id="namedview6"
     showgrid="false"
     inkscape:zoom="0.70710678"
     inkscape:cx="419.81198"
     inkscape:cy="185.38486"
     inkscape:window-x="-8"
     inkscape:window-y="-8"
     inkscape:window-maximized="1"
     inkscape:current-layer="g4463" />
  <g
     id="g4"
     style="stroke:#000000;stroke-width:4;stroke-miterlimit:4;stroke-dasharray:none;stroke-opacity:1"
     transform="translate(0,100)" />
  <g
     inkscape:groupmode="layer"
     id="layer2"
     inkscape:label="0Shape"
     transform="translate(0,100)">
    <path
       style="fill:none;fill-rule:evenodd;stroke:#000000;stroke-width:2;stroke-linecap:butt;stroke-linejoin:miter;stroke-miterlimit:4;stroke-dasharray:none;stroke-opacity:1"
       d="m 100,100 600,0"
       id="path4232"
       inkscape:connector-curvature="0"
       sodipodi:nodetypes="cc" />
    <path
       style="fill:none;fill-rule:evenodd;stroke:#000000;stroke-width:2;stroke-linecap:butt;stroke-linejoin:miter;stroke-miterlimit:4;stroke-dasharray:none;stroke-opacity:1"
       d="M 100,0 700,0"
       id="path4232-0"
       inkscape:connector-curvature="0"
       sodipodi:nodetypes="cc" />
    <path
       style="fill:#ffffff;fill-opacity:1;fill-rule:evenodd;stroke:#000000;stroke-width:2;stroke-linecap:butt;stroke-linejoin:miter;stroke-miterlimit:4;stroke-dasharray:none;stroke-opacity:1"
       d="m 175,0 25,25 150,0 25,-25 -25,-25 -150,0 z"
       id="path4387"
       inkscape:connector-curvature="0"
       sodipodi:nodetypes="ccccccc" />
    <path
       style="fill:#ffffff;fill-opacity:1;fill-rule:evenodd;stroke:#000000;stroke-width:2;stroke-linecap:butt;stroke-linejoin:miter;stroke-miterlimit:4;stroke-dasharray:none;stroke-opacity:1"
       d="m 425,100 25,25 150,0 25,-25 -25,-25 -150,0 z"
       id="path4387-7"
       inkscape:connector-curvature="0"
       sodipodi:nodetypes="ccccccc" />
    <path
       style="fill:none;fill-rule:evenodd;stroke:#000000;stroke-width:2;stroke-linecap:butt;stroke-linejoin:miter;stroke-miterlimit:4;stroke-dasharray:none;stroke-opacity:1"
       d="m 100,175 25,0 25,50 500,0 25,-50 25,0"
       id="path4232-5-9"
       inkscape:connector-curvature="0"
       sodipodi:nodetypes="cccccc" />
    <path
       style="fill:none;fill-rule:evenodd;stroke:#000000;stroke-width:1px;stroke-linecap:butt;stroke-linejoin:miter;stroke-opacity:1;marker-start:url(#Arrow2Lstart)"
       d="m 375,-50 75,0"
       id="path4526"
       inkscape:connector-curvature="0"
       sodipodi:nodetypes="cc" />
    <path
       style="fill:none;fill-rule:evenodd;stroke:#000000;stroke-width:1px;stroke-linecap:butt;stroke-linejoin:miter;stroke-opacity:1;marker-end:url(#Arrow2Lend)"
       d="m 550,-50 75,0"
       id="path4528"
       inkscape:connector-curvature="0"
       sodipodi:nodetypes="cc" />
    <path
       style="fill:none;fill-rule:evenodd;stroke:#000000;stroke-width:1px;stroke-linecap:butt;stroke-linejoin:miter;stroke-opacity:1;marker-start:url(#StopL)"
       d="m 375,-49.999998 75,0"
       id="path4526-7"
       inkscape:connector-curvature="0"
       sodipodi:nodetypes="cc" />
    <path
       style="fill:none;fill-rule:evenodd;stroke:#000000;stroke-width:1px;stroke-linecap:butt;stroke-linejoin:miter;stroke-opacity:1;marker-end:url(#marker5134)"
       d="m 550,-49.999998 75,0"
       id="path4528-3"
       inkscape:connector-curvature="0"
       sodipodi:nodetypes="cc" />
  </g>
  <g
     inkscape:groupmode="layer"
     id="layer1"
     inkscape:label="1Text"
     style="display:none"
     transform="translate(0,100)">
    <text
       xml:space="preserve"
       style="font-style:normal;font-variant:normal;font-weight:normal;font-stretch:normal;font-size:40px;line-height:125%;font-family:'Segoe UI';-inkscape-font-specification:'Segoe UI';text-align:center;letter-spacing:0px;word-spacing:0px;text-anchor:middle;fill:#000000;fill-opacity:1;stroke:none;stroke-width:1px;stroke-linecap:butt;stroke-linejoin:miter;stroke-opacity:1"
       x="280.20532"
       y="100.64845"
       id="text4321-6-3-0"
       sodipodi:linespacing="125%"><tspan
         sodipodi:role="line"
         id="tspan4323-5-7-8"
         x="280.20532"
         y="100.64845"
         style="font-size:20px;text-align:center;text-anchor:middle;stroke:none"
         dy="-10">ignored</tspan></text>
    <text
       xml:space="preserve"
       style="font-style:normal;font-variant:normal;font-weight:normal;font-stretch:normal;font-size:40px;line-height:125%;font-family:'Segoe UI';-inkscape-font-specification:'Segoe UI';letter-spacing:0px;word-spacing:0px;fill:#000000;fill-opacity:1;stroke:none;stroke-width:1px;stroke-linecap:butt;stroke-linejoin:miter;stroke-opacity:1"
       x="15.844158"
       y="0.6484375"
       id="text4321"
       sodipodi:linespacing="125%"><tspan
         sodipodi:role="line"
         id="tspan4323"
         x="15.844158"
         y="0.6484375"
         style="font-size:30px"
         dy="9">MOSI</tspan></text>
    <text
       xml:space="preserve"
       style="font-style:normal;font-variant:normal;font-weight:normal;font-stretch:normal;font-size:40px;line-height:125%;font-family:'Segoe UI';-inkscape-font-specification:'Segoe UI';letter-spacing:0px;word-spacing:0px;fill:#000000;fill-opacity:1;stroke:none;stroke-width:1px;stroke-linecap:butt;stroke-linejoin:miter;stroke-opacity:1"
       x="17.14286"
       y="100.64844"
       id="text4321-6"
       sodipodi:linespacing="125%"><tspan
         sodipodi:role="line"
         id="tspan4323-5"
         x="17.14286"
         y="100.64844"
         style="font-size:30px"
         dy="9">MISO</tspan></text>
    <text
       xml:space="preserve"
       style="font-style:normal;font-variant:normal;font-weight:normal;font-stretch:normal;font-size:40px;line-height:125%;font-family:'Segoe UI';-inkscape-font-specification:'Segoe UI';letter-spacing:0px;word-spacing:0px;fill:#000000;fill-opacity:1;stroke:none;stroke-width:1px;stroke-linecap:butt;stroke-linejoin:miter;stroke-opacity:1"
       x="17.14286"
       y="200.64844"
       id="text4321-6-1"
       sodipodi:linespacing="125%"><tspan
         sodipodi:role="line"
         id="tspan4323-5-9"
         x="17.14286"
         y="200.64844"
         style="font-size:30px"
         dy="9">/SS</tspan></text>
    <text
       xml:space="preserve"
       style="font-style:normal;font-variant:normal;font-weight:normal;font-stretch:normal;font-size:40px;line-height:125%;font-family:'Segoe UI';-inkscape-font-specification:'Segoe UI';text-align:center;letter-spacing:0px;word-spacing:0px;text-anchor:middle;fill:#000000;fill-opacity:1;stroke:none;stroke-width:1px;stroke-linecap:butt;stroke-linejoin:miter;stroke-opacity:1"
       x="277.49088"
       y="0.64844131"
       id="text4321-3"
       sodipodi:linespacing="125%"><tspan
         sodipodi:role="line"
         id="tspan4323-1"
         x="277.49088"
         y="0.64844131"
         style="font-size:20px;text-align:center;text-anchor:middle;stroke:none;stroke-opacity:1"
         dy="6">32'b request</tspan></text>
    <text
       xml:space="preserve"
       style="font-style:normal;font-variant:normal;font-weight:normal;font-stretch:normal;font-size:40px;line-height:125%;font-family:'Segoe UI';-inkscape-font-specification:'Segoe UI';text-align:center;letter-spacing:0px;word-spacing:0px;text-anchor:middle;fill:#000000;fill-opacity:1;stroke:none;stroke-width:1px;stroke-linecap:butt;stroke-linejoin:miter;stroke-opacity:1"
       x="530.20532"
       y="100.64845"
       id="text4321-6-3"
       sodipodi:linespacing="125%"><tspan
         sodipodi:role="line"
         id="tspan4323-5-7"
         x="530.20532"
         y="100.64845"
         style="font-size:20px;text-align:center;text-anchor:middle;stroke:none"
         dy="6">32'b response</tspan></text>
    <text
       xml:space="preserve"
       style="font-style:normal;font-weight:normal;font-size:20px;line-height:125%;font-family:sans-serif;text-align:center;letter-spacing:0px;word-spacing:0px;text-anchor:middle;fill:#000000;fill-opacity:1;stroke:none;stroke-width:1px;stroke-linecap:butt;stroke-linejoin:miter;stroke-opacity:1"
       x="499.95117"
       y="-51"
       id="text4970"
       sodipodi:linespacing="125%"><tspan
         sodipodi:role="line"
         id="tspan4972"
         x="499.95117"
         y="-51"
         dy="6">&lt; 12s</tspan></text>
    <text
       xml:space="preserve"
       style="font-style:normal;font-variant:normal;font-weight:normal;font-stretch:normal;font-size:40px;line-height:125%;font-family:'Segoe UI';-inkscape-font-specification:'Segoe UI';text-align:center;letter-spacing:0px;word-spacing:0px;text-anchor:middle;fill:#000000;fill-opacity:1;stroke:none;stroke-width:1px;stroke-linecap:butt;stroke-linejoin:miter;stroke-opacity:1"
       x="526.39246"
       y="0.6484375"
       id="text4321-3-4"
       sodipodi:linespacing="125%"><tspan
         sodipodi:role="line"
         id="tspan4323-1-9"
         x="526.39246"
         y="0.6484375"
         style="font-size:20px;text-align:center;text-anchor:middle;stroke:none;stroke-opacity:1"
         dy="-10">ignored</tspan></text>
  </g>
  <g
     inkscape:label="1Text.pathified"
     id="g4463"
     inkscape:groupmode="layer"
     transform="translate(0,100)">
    <g
       style="font-style:normal;font-variant:normal;font-weight:normal;font-stretch:normal;font-size:40px;line-height:125%;font-family:'Segoe UI';-inkscape-font-specification:'Segoe UI';text-align:center;letter-spacing:0px;word-spacing:0px;text-anchor:middle;fill:#000000;fill-opacity:1;stroke:none;stroke-width:1px;stroke-linecap:butt;stroke-linejoin:miter;stroke-opacity:1"
       id="text4321-6-3-0-0">
      <path
         d="m 248.1936,78.10939 q -0.42968,0 -0.73242,-0.292968 -0.30273,-0.292969 -0.30273,-0.742188 0,-0.449219 0.30273,-0.742187 0.30274,-0.302735 0.73242,-0.302735 0.43946,0 0.74219,0.302735 0.3125,0.292968 0.3125,0.742187 0,0.429688 -0.3125,0.732422 -0.30273,0.302734 -0.74219,0.302734 z m 0.78125,12.539063 -1.60156,0 0,-10 1.60156,0 0,10 z"
         style="font-size:20px;text-align:center;text-anchor:middle;stroke:none"
         id="path4306" />
      <path
         d="m 260.7522,89.847672 q 0,5.507812 -5.27344,5.507812 -1.85547,0 -3.24219,-0.703125 l 0,-1.601562 q 1.68946,0.9375 3.22266,0.9375 3.6914,0 3.6914,-3.925782 l 0,-1.09375 -0.0391,0 q -1.14258,1.914063 -3.4375,1.914063 -1.86523,0 -3.00781,-1.328125 -1.13281,-1.337891 -1.13281,-3.583985 0,-2.548828 1.2207,-4.052734 1.23047,-1.503906 3.35938,-1.503906 2.02148,0 2.99804,1.621094 l 0.0391,0 0,-1.386719 1.60157,0 0,9.199219 z m -1.60157,-3.720704 0,-1.474609 q 0,-1.191406 -0.81054,-2.041016 -0.80078,-0.849609 -2.00196,-0.849609 -1.48437,0 -2.32421,1.083984 -0.83985,1.074219 -0.83985,3.017579 0,1.669921 0.80078,2.675781 0.81055,0.996094 2.13868,0.996094 1.34765,0 2.1875,-0.957032 0.8496,-0.957031 0.8496,-2.451172 z"
         style="font-size:20px;text-align:center;text-anchor:middle;stroke:none"
         id="path4308" />
      <path
         d="m 272.3147,90.648453 -1.60157,0 0,-5.703125 q 0,-3.183594 -2.32421,-3.183594 -1.20118,0 -1.99219,0.908203 -0.78125,0.898438 -0.78125,2.275391 l 0,5.703125 -1.60156,0 0,-10 1.60156,0 0,1.660156 0.0391,0 q 1.13281,-1.894531 3.28125,-1.894531 1.64063,0 2.50977,1.064453 0.86914,1.054687 0.86914,3.056641 l 0,6.113281 z"
         style="font-size:20px;text-align:center;text-anchor:middle;stroke:none"
         id="path4310" />
      <path
         d="m 279.52173,90.882828 q -2.2168,0 -3.54492,-1.396485 -1.31836,-1.40625 -1.31836,-3.720703 0,-2.519531 1.37695,-3.935547 1.37695,-1.416015 3.7207,-1.416015 2.23633,0 3.48633,1.376953 1.25977,1.376953 1.25977,3.818359 0,2.392578 -1.35742,3.837891 -1.34766,1.435547 -3.62305,1.435547 z m 0.11719,-9.121094 q -1.54297,0 -2.44141,1.054688 -0.89844,1.044921 -0.89844,2.890625 0,1.777343 0.90821,2.802734 0.9082,1.025391 2.43164,1.025391 1.55273,0 2.38281,-1.00586 0.83984,-1.005859 0.83984,-2.861328 0,-1.875 -0.83984,-2.890625 -0.83008,-1.015625 -2.38281,-1.015625 z"
         style="font-size:20px;text-align:center;text-anchor:middle;stroke:none"
         id="path4312" />
      <path
         d="m 292.27563,82.269547 q -0.41992,-0.322266 -1.21093,-0.322266 -1.02539,0 -1.71875,0.966797 -0.6836,0.966797 -0.6836,2.636719 l 0,5.097656 -1.60156,0 0,-10 1.60156,0 0,2.060547 0.0391,0 q 0.34179,-1.054688 1.04492,-1.640625 0.70312,-0.595703 1.57226,-0.595703 0.625,0 0.95703,0.136718 l 0,1.660157 z"
         style="font-size:20px;text-align:center;text-anchor:middle;stroke:none"
         id="path4314" />
      <path
         d="m 302.05103,86.048843 -7.06055,0 q 0.0391,1.669922 0.89844,2.578125 0.85937,0.908204 2.36328,0.908204 1.68945,0 3.10547,-1.113282 l 0,1.503907 q -1.31836,0.957031 -3.48633,0.957031 -2.11914,0 -3.33008,-1.357422 -1.21094,-1.367188 -1.21094,-3.837891 0,-2.333984 1.31836,-3.798828 1.32813,-1.474609 3.29102,-1.474609 1.96289,0 3.03711,1.269531 1.07422,1.269531 1.07422,3.525391 l 0,0.839843 z m -1.64063,-1.357421 q -0.01,-1.386719 -0.67383,-2.158204 -0.65429,-0.771484 -1.82617,-0.771484 -1.13281,0 -1.92383,0.810547 -0.79101,0.810547 -0.97656,2.119141 l 5.40039,0 z"
         style="font-size:20px;text-align:center;text-anchor:middle;stroke:none"
         id="path4316" />
      <path
         d="m 313.01782,90.648453 -1.60156,0 0,-1.699219 -0.0391,0 q -1.11328,1.933594 -3.4375,1.933594 -1.88477,0 -3.01758,-1.337891 -1.12305,-1.347656 -1.12305,-3.662109 0,-2.480469 1.25,-3.97461 1.25,-1.49414 3.33008,-1.49414 2.06055,0 2.99805,1.621094 l 0.0391,0 0,-6.191407 1.60156,0 0,14.804688 z m -1.60156,-4.521485 0,-1.474609 q 0,-1.210937 -0.80078,-2.050781 -0.80078,-0.839844 -2.03125,-0.839844 -1.46485,0 -2.30469,1.074219 -0.83984,1.074219 -0.83984,2.96875 0,1.728515 0.80078,2.734375 0.81055,0.996094 2.16797,0.996094 1.33789,0 2.16797,-0.966797 0.83984,-0.966797 0.83984,-2.441407 z"
         style="font-size:20px;text-align:center;text-anchor:middle;stroke:none"
         id="path4318" />
    </g>
    <g
       style="font-style:normal;font-variant:normal;font-weight:normal;font-stretch:normal;font-size:40px;line-height:125%;font-family:'Segoe UI';-inkscape-font-specification:'Segoe UI';letter-spacing:0px;word-spacing:0px;fill:#000000;fill-opacity:1;stroke:none;stroke-width:1px;stroke-linecap:butt;stroke-linejoin:miter;stroke-opacity:1"
       id="text4321-8">
      <path
         d="m 40.01408,9.6484375 -2.446289,0 0,-14.0917969 q 0,-1.6699218 0.205078,-4.086914 l -0.05859,0 q -0.351562,1.4208984 -0.629882,2.0361328 l -7.177735,16.1425781 -1.201172,0 L 21.5424,-6.3769531 q -0.307617,-0.703125 -0.629882,-2.1533203 l -0.05859,0 q 0.117187,1.2597656 0.117187,4.1162109 l 0,14.0625 -2.373047,0 0,-21.0058595 3.251954,0 6.445312,14.6484376 q 0.74707,1.6845703 0.966797,2.5195313 l 0.08789,0 Q 29.9799,4.0820312 30.36076,3.2324219 l 6.577148,-14.5898439 3.076172,0 0,21.0058595 z"
         style="font-size:30px"
         id="path4321" />
      <path
         d="m 54.017986,10 q -4.467773,0 -7.163086,-2.9443359 -2.680664,-2.944336 -2.680664,-7.66113285 0,-5.06835935 2.739258,-8.08593755 2.739258,-3.0175777 7.456055,-3.0175777 4.350586,0 7.001953,2.9296871 2.666016,2.9296875 2.666016,7.6611328 0,5.1416016 -2.72461,8.1298828 Q 58.588299,10 54.017986,10 Z m 0.175782,-19.4824219 q -3.310547,0 -5.375977,2.3876953 -2.06543,2.3876954 -2.06543,6.26953129 0,3.88183591 2.006836,6.25488281 2.021485,2.3583984 5.258789,2.3583984 3.457032,0 5.449219,-2.2558593 1.992188,-2.2558594 1.992188,-6.3134766 0,-4.1601562 -1.933594,-6.4306641 -1.933594,-2.2705078 -5.332031,-2.2705078 z"
         style="font-size:30px"
         id="path4323" />
      <path
         d="m 67.186932,8.7988281 0,-2.9003906 q 0.498046,0.4394531 1.186523,0.7910156 0.703125,0.3515625 1.464844,0.600586 0.776367,0.234375 1.552734,0.3662109 0.776367,0.1318359 1.435547,0.1318359 2.270508,0 3.383789,-0.8349609 1.12793,-0.8496094 1.12793,-2.4316406 0,-0.8496094 -0.38086,-1.4794922 Q 76.591228,2.4121094 75.932049,1.8994141 75.272869,1.3720703 74.364666,0.90332031 73.471111,0.41992188 72.431072,-0.10742187 71.332439,-0.6640625 70.380291,-1.2353516 q -0.952148,-0.571289 -1.655273,-1.2597656 -0.703125,-0.6884766 -1.113282,-1.5527344 -0.395508,-0.8789062 -0.395508,-2.0507812 0,-1.4355469 0.629883,-2.4902344 0.629883,-1.0693359 1.655274,-1.7578128 1.02539,-0.688476 2.329101,-1.02539 1.31836,-0.336914 2.680664,-0.336914 3.105469,0 4.526368,0.74707 l 0,2.7685546 q -1.860352,-1.2890625 -4.775391,-1.2890625 -0.805664,0 -1.611328,0.1757813 -0.805664,0.1611328 -1.435547,0.5419922 -0.629883,0.3808593 -1.025391,0.9814453 -0.395508,0.6005859 -0.395508,1.4648437 0,0.8056641 0.292969,1.3916016 0.307617,0.5859375 0.893555,1.0693359 0.585937,0.4833985 1.420898,0.9375 0.84961,0.4541016 1.948243,0.9960938 1.127929,0.5566406 2.138671,1.17187498 1.010743,0.61523437 1.772461,1.36230468 0.761719,0.74707034 1.201172,1.65527344 0.454102,0.9082031 0.454102,2.0800781 0,1.5527344 -0.615235,2.6367188 -0.600586,1.0693359 -1.640625,1.743164 -1.02539,0.6738282 -2.373046,0.9667969 Q 73.939861,10 72.445721,10 71.947674,10 71.215252,9.9121094 70.48283,9.8388672 69.721111,9.6777344 68.959393,9.53125 68.270916,9.3115234 67.597088,9.0771484 67.186932,8.7988281 Z"
         style="font-size:30px"
         id="path4325" />
      <path
         d="m 86.566814,9.6484375 -2.460937,0 0,-21.0058595 2.460937,0 0,21.0058595 z"
         style="font-size:30px"
         id="path4327" />
    </g>
    <g
       style="font-style:normal;font-variant:normal;font-weight:normal;font-stretch:normal;font-size:40px;line-height:125%;font-family:'Segoe UI';-inkscape-font-specification:'Segoe UI';letter-spacing:0px;word-spacing:0px;fill:#000000;fill-opacity:1;stroke:none;stroke-width:1px;stroke-linecap:butt;stroke-linejoin:miter;stroke-opacity:1"
       id="text4321-6-34">
      <path
         d="m 41.312782,109.64844 -2.446289,0 0,-14.091799 q 0,-1.669922 0.205078,-4.086914 l -0.05859,0 q -0.351563,1.420898 -0.629883,2.036132 l -7.177735,16.142581 -1.201171,0 -7.163086,-16.025393 q -0.307618,-0.703125 -0.629883,-2.15332 l -0.05859,0 q 0.117188,1.259765 0.117188,4.11621 l 0,14.062503 -2.373047,0 0,-21.005862 3.251953,0 6.445312,14.648442 q 0.747071,1.68457 0.966797,2.51953 l 0.08789,0 q 0.629883,-1.72852 1.010742,-2.57813 l 6.577148,-14.589842 3.076172,0 0,21.005862 z"
         style="font-size:30px"
         id="path4330" />
      <path
         d="m 49.310829,109.64844 -2.460937,0 0,-21.005862 2.460937,0 0,21.005862 z"
         style="font-size:30px"
         id="path4332" />
      <path
         d="m 53.837196,108.79883 0,-2.90039 q 0.498047,0.43945 1.186524,0.79101 0.703125,0.35157 1.464844,0.60059 0.776367,0.23437 1.552734,0.36621 0.776367,0.13184 1.435547,0.13184 2.270508,0 3.383789,-0.83496 1.12793,-0.84961 1.12793,-2.43165 0,-0.8496 -0.38086,-1.47949 -0.366211,-0.62988 -1.02539,-1.14258 -0.65918,-0.52734 -1.567383,-0.99609 -0.893555,-0.4834 -1.933594,-1.010742 -1.098633,-0.556641 -2.050781,-1.12793 -0.952149,-0.571289 -1.655274,-1.259765 -0.703125,-0.688477 -1.113281,-1.552735 -0.395508,-0.878906 -0.395508,-2.050781 0,-1.435547 0.629883,-2.490234 0.629883,-1.069336 1.655273,-1.757813 1.025391,-0.688476 2.329102,-1.02539 1.318359,-0.336914 2.680664,-0.336914 3.105469,0 4.526367,0.74707 l 0,2.768555 q -1.860351,-1.289063 -4.77539,-1.289063 -0.805664,0 -1.611328,0.175781 -0.805665,0.161133 -1.435547,0.541993 -0.629883,0.380859 -1.025391,0.981445 -0.395508,0.600586 -0.395508,1.464844 0,0.805664 0.292969,1.391601 0.307617,0.585938 0.893555,1.069336 0.585937,0.483399 1.420898,0.9375 0.849609,0.454102 1.948242,0.996094 1.12793,0.55664 2.138672,1.171875 1.010742,0.615234 1.772461,1.362303 0.761719,0.74707 1.201172,1.65528 0.454102,0.9082 0.454102,2.08007 0,1.55274 -0.615235,2.63672 -0.600586,1.06934 -1.640625,1.74317 -1.02539,0.67382 -2.373047,0.96679 Q 60.590126,110 59.095985,110 q -0.498046,0 -1.230468,-0.0879 -0.732422,-0.0732 -1.494141,-0.23438 -0.761719,-0.14648 -1.450195,-0.36621 -0.673828,-0.23437 -1.083985,-0.51269 z"
         style="font-size:30px"
         id="path4334" />
      <path
         d="m 79.222939,110 q -4.467774,0 -7.163086,-2.94434 -2.680664,-2.94433 -2.680664,-7.661129 0,-5.068359 2.739257,-8.085937 2.739258,-3.017578 7.456055,-3.017578 4.350586,0 7.001953,2.929687 2.666016,2.929688 2.666016,7.661133 0,5.141604 -2.72461,8.129884 Q 83.793251,110 79.222939,110 Z M 79.39872,90.517578 q -3.310547,0 -5.375977,2.387695 -2.065429,2.387696 -2.065429,6.269532 0,3.881835 2.006835,6.254885 2.021485,2.3584 5.25879,2.3584 3.457031,0 5.449218,-2.25586 1.992188,-2.25586 1.992188,-6.31348 0,-4.160156 -1.933594,-6.430664 -1.933594,-2.270508 -5.332031,-2.270508 z"
         style="font-size:30px"
         id="path4336" />
    </g>
    <g
       style="font-style:normal;font-variant:normal;font-weight:normal;font-stretch:normal;font-size:40px;line-height:125%;font-family:'Segoe UI';-inkscape-font-specification:'Segoe UI';letter-spacing:0px;word-spacing:0px;fill:#000000;fill-opacity:1;stroke:none;stroke-width:1px;stroke-linecap:butt;stroke-linejoin:miter;stroke-opacity:1"
       id="text4321-6-1-8">
      <path
         d="m 29.05204,188.64258 -10.078125,24.49219 -2.241211,0 10.048828,-24.49219 2.270508,0 z"
         style="font-size:30px"
         id="path4339" />
      <path
         d="m 30.634071,208.79883 0,-2.90039 q 0.498047,0.43945 1.186524,0.79101 0.703125,0.35157 1.464844,0.60059 0.776367,0.23437 1.552734,0.36621 0.776367,0.13184 1.435547,0.13184 2.270508,0 3.383789,-0.83497 1.12793,-0.8496 1.12793,-2.43164 0,-0.84961 -0.38086,-1.47949 -0.366211,-0.62988 -1.02539,-1.14258 -0.65918,-0.52734 -1.567383,-0.99609 -0.893555,-0.4834 -1.933594,-1.01074 -1.098633,-0.55664 -2.050781,-1.12793 -0.952149,-0.57129 -1.655274,-1.25977 -0.703125,-0.68847 -1.113281,-1.55273 -0.395508,-0.87891 -0.395508,-2.05078 0,-1.43555 0.629883,-2.49024 0.629883,-1.06933 1.655273,-1.75781 1.025391,-0.68848 2.329102,-1.02539 1.318359,-0.33691 2.680664,-0.33691 3.105469,0 4.526367,0.74707 l 0,2.76855 q -1.860351,-1.28906 -4.77539,-1.28906 -0.805664,0 -1.611328,0.17578 -0.805665,0.16113 -1.435547,0.54199 -0.629883,0.38086 -1.025391,0.98145 -0.395508,0.60058 -0.395508,1.46484 0,0.80566 0.292969,1.3916 0.307617,0.58594 0.893555,1.06934 0.585937,0.4834 1.420898,0.9375 0.849609,0.4541 1.948242,0.99609 1.12793,0.55664 2.138672,1.17188 1.010742,0.61523 1.772461,1.3623 0.761719,0.74707 1.201172,1.65527 0.454102,0.90821 0.454102,2.08008 0,1.55274 -0.615235,2.63672 -0.600586,1.06934 -1.640625,1.74317 -1.02539,0.67382 -2.373047,0.96679 Q 37.387001,210 35.89286,210 q -0.498046,0 -1.230468,-0.0879 -0.732422,-0.0732 -1.494141,-0.23438 -0.761719,-0.14648 -1.450195,-0.36621 -0.673828,-0.23437 -1.083985,-0.51269 z"
         style="font-size:30px"
         id="path4341" />
      <path
         d="m 46.571571,208.79883 0,-2.90039 q 0.498047,0.43945 1.186524,0.79101 0.703125,0.35157 1.464844,0.60059 0.776367,0.23437 1.552734,0.36621 0.776367,0.13184 1.435547,0.13184 2.270508,0 3.383789,-0.83497 1.12793,-0.8496 1.12793,-2.43164 0,-0.84961 -0.38086,-1.47949 -0.366211,-0.62988 -1.02539,-1.14258 -0.65918,-0.52734 -1.567383,-0.99609 -0.893555,-0.4834 -1.933594,-1.01074 -1.098633,-0.55664 -2.050781,-1.12793 -0.952149,-0.57129 -1.655274,-1.25977 -0.703125,-0.68847 -1.113281,-1.55273 -0.395508,-0.87891 -0.395508,-2.05078 0,-1.43555 0.629883,-2.49024 0.629883,-1.06933 1.655273,-1.75781 1.025391,-0.68848 2.329102,-1.02539 1.318359,-0.33691 2.680664,-0.33691 3.105469,0 4.526367,0.74707 l 0,2.76855 q -1.860351,-1.28906 -4.77539,-1.28906 -0.805664,0 -1.611328,0.17578 -0.805665,0.16113 -1.435547,0.54199 -0.629883,0.38086 -1.025391,0.98145 -0.395508,0.60058 -0.395508,1.46484 0,0.80566 0.292969,1.3916 0.307617,0.58594 0.893555,1.06934 0.585937,0.4834 1.420898,0.9375 0.849609,0.4541 1.948242,0.99609 1.12793,0.55664 2.138672,1.17188 1.010742,0.61523 1.772461,1.3623 0.761719,0.74707 1.201172,1.65527 0.454102,0.90821 0.454102,2.08008 0,1.55274 -0.615235,2.63672 -0.600586,1.06934 -1.640625,1.74317 -1.02539,0.67382 -2.373047,0.96679 Q 53.324501,210 51.83036,210 q -0.498046,0 -1.230468,-0.0879 -0.732422,-0.0732 -1.494141,-0.23438 -0.761719,-0.14648 -1.450195,-0.36621 -0.673828,-0.23437 -1.083985,-0.51269 z"
         style="font-size:30px"
         id="path4343" />
    </g>
    <g
       style="font-style:normal;font-variant:normal;font-weight:normal;font-stretch:normal;font-size:40px;line-height:125%;font-family:'Segoe UI';-inkscape-font-specification:'Segoe UI';text-align:center;letter-spacing:0px;word-spacing:0px;text-anchor:middle;fill:#000000;fill-opacity:1;stroke:none;stroke-width:1px;stroke-linecap:butt;stroke-linejoin:miter;stroke-opacity:1"
       id="text4321-3-1">
      <path
         d="m 231.95377,2.6835976 q 0,0.9472656 -0.36133,1.7285156 -0.35156,0.7714844 -1.00586,1.328125 -0.64453,0.546875 -1.55274,0.8496094 -0.9082,0.3027343 -2.00195,0.3027343 -2.00195,0 -3.18359,-0.7617187 l 0,-1.71875 q 1.41601,1.1132812 3.24218,1.1132812 0.73243,0 1.31836,-0.1855468 0.59571,-0.1855469 1.01563,-0.5371094 0.42969,-0.3515625 0.6543,-0.8496094 0.23437,-0.4980469 0.23437,-1.1230469 0,-2.74414059 -3.90625,-2.74414059 l -1.16211,0 0,-1.35742191 1.10352,0 q 3.45703,0 3.45703,-2.578125 0,-2.3828125 -2.63672,-2.3828125 -1.48438,0 -2.7832,0.9960938 l 0,-1.5527344 q 1.33789,-0.8007812 3.18359,-0.8007812 0.87891,0 1.5918,0.2441406 0.71289,0.2441406 1.2207,0.6835937 0.50781,0.4394532 0.78125,1.0546875 0.2832,0.6152344 0.2832,1.3574219 0,2.7636719 -2.79297,3.55468751 l 0,0.0390625 q 0.7129,0.078125 1.31836,0.3515625 0.60547,0.26367188 1.04493,0.69335938 0.43945,0.4296875 0.68359,1.01562501 0.25391,0.5761719 0.25391,1.2792969 z"
         style="font-size:20px;text-align:center;text-anchor:middle;stroke:none;stroke-opacity:1"
         id="path4346" />
      <path
         d="m 240.96744,-3.6835899 q 0,-0.6445313 -0.20508,-1.1230469 -0.19531,-0.4785156 -0.54688,-0.7910156 -0.34179,-0.3222657 -0.81054,-0.4785157 -0.46875,-0.15625 -1.01563,-0.15625 -0.46875,0 -0.91797,0.1269532 -0.44921,0.1269531 -0.8789,0.3515625 -0.41992,0.2246093 -0.82031,0.5371093 -0.39063,0.3125 -0.73243,0.6933594 l 0,-1.71875 q 0.67383,-0.6542969 1.50391,-0.9960937 0.83984,-0.3515625 2.04102,-0.3515625 0.85937,0 1.59179,0.2539062 0.73242,0.2441406 1.26953,0.7226563 0.53711,0.4785156 0.83985,1.1816406 0.3125,0.703125 0.3125,1.6113281 0,0.8300781 -0.19532,1.5039063 -0.18554,0.6738281 -0.57617,1.2695312 -0.38086,0.59570314 -0.96679,1.14257814 -0.58594,0.546875 -1.37696,1.11328126 -0.98633,0.703125 -1.63086,1.2011719 -0.63476,0.4980468 -1.01562,0.9375 -0.3711,0.4296875 -0.52735,0.8691406 -0.14648,0.4296875 -0.14648,0.9960937 l 6.97266,0 0,1.4355469 -8.64258,0 0,-0.6933594 q 0,-0.8984375 0.19531,-1.5820312 0.19531,-0.6835938 0.64453,-1.2988281 0.44922,-0.6152344 1.17188,-1.2304688 0.73242,-0.6152344 1.78711,-1.38671874 0.76172,-0.546875 1.26953,-1.04492187 0.51758,-0.49804689 0.83008,-0.99609379 0.3125,-0.4980468 0.43945,-1.0058593 0.13672,-0.5175782 0.13672,-1.09375 z"
         style="font-size:20px;text-align:center;text-anchor:middle;stroke:none;stroke-opacity:1"
         id="path4348" />
      <path
         d="m 247.21744,-7.3554649 0,4.3652343 -1.41602,0 0,-4.3652343 1.41602,0 z"
         style="font-size:20px;text-align:center;text-anchor:middle;stroke:none;stroke-opacity:1"
         id="path4350" />
      <path
         d="m 252.08072,5.2031288 -0.0391,0 0,1.4453125 -1.60157,0 0,-14.8046875 1.60157,0 0,6.5625 0.0391,0 q 1.18164,-1.9921875 3.45703,-1.9921875 1.92383,0 3.00781,1.3476563 1.09375,1.33789059 1.09375,3.59375 0,2.5097656 -1.2207,4.0234375 -1.2207,1.5039062 -3.33984,1.5039062 -1.98243,0 -2.99805,-1.6796875 z m -0.0391,-4.0332031 0,1.3964844 q 0,1.2402343 0.80078,2.109375 0.81054,0.859375 2.05078,0.859375 1.45508,0 2.27539,-1.1132813 0.83008,-1.1132812 0.83008,-3.0957031 0,-1.66992189 -0.77149,-2.6171875 -0.77148,-0.9472656 -2.08984,-0.9472656 -1.39648,0 -2.24609,0.9765625 -0.84961,0.96679684 -0.84961,2.4316406 z"
         style="font-size:20px;text-align:center;text-anchor:middle;stroke:none;stroke-opacity:1"
         id="path4352" />
      <path
         d="m 272.8815,-1.7304649 q -0.41992,-0.3222657 -1.21094,-0.3222657 -1.02539,0 -1.71875,0.9667969 -0.68359,0.96679689 -0.68359,2.6367188 l 0,5.0976562 -1.60156,0 0,-10 1.60156,0 0,2.0605469 0.0391,0 q 0.3418,-1.0546875 1.04492,-1.640625 0.70313,-0.5957031 1.57227,-0.5957031 0.625,0 0.95703,0.1367187 l 0,1.6601563 z"
         style="font-size:20px;text-align:center;text-anchor:middle;stroke:none;stroke-opacity:1"
         id="path4354" />
      <path
         d="m 282.65689,2.0488319 -7.06055,0 q 0.0391,1.6699219 0.89844,2.578125 0.85938,0.9082032 2.36328,0.9082032 1.68946,0 3.10547,-1.1132813 l 0,1.5039063 q -1.31836,0.9570312 -3.48633,0.9570312 -2.11914,0 -3.33007,-1.3574219 -1.21094,-1.3671875 -1.21094,-3.8378906 0,-2.33398436 1.31836,-3.7988281 1.32812,-1.4746094 3.29101,-1.4746094 1.96289,0 3.03711,1.2695313 1.07422,1.2695312 1.07422,3.5253906 l 0,0.8398437 z m -1.64062,-1.35742184 q -0.01,-1.38671875 -0.67383,-2.15820316 -0.6543,-0.7714843 -1.82617,-0.7714843 -1.13282,0 -1.92383,0.8105468 -0.79102,0.81054691 -0.97656,2.11914066 l 5.40039,0 z"
         style="font-size:20px;text-align:center;text-anchor:middle;stroke:none;stroke-opacity:1"
         id="path4356" />
      <path
         d="m 293.62369,11.248051 -1.60156,0 0,-6.3183597 -0.0391,0 q -1.04492,1.953125 -3.41797,1.953125 -1.88476,0 -3.02734,-1.3378906 -1.13281,-1.3476563 -1.13281,-3.6621094 0,-2.49023436 1.25,-3.9746094 1.25,-1.4941406 3.35937,-1.4941406 2.05078,0 2.96875,1.6210938 l 0.0391,0 0,-1.3867188 1.60156,0 0,14.5996097 z m -1.60156,-9.1015628 0,-1.45507814 q 0,-1.23046875 -0.81055,-2.08007816 -0.80078,-0.8496093 -2.04102,-0.8496093 -1.44531,0 -2.28515,1.0742187 -0.83985,1.06445314 -0.83985,3.0078125 0,1.7285156 0.81055,2.7148438 0.81055,0.9765625 2.08984,0.9765625 1.40625,0 2.23633,-0.9570313 0.83985,-0.9667969 0.83985,-2.4316406 z"
         style="font-size:20px;text-align:center;text-anchor:middle;stroke:none;stroke-opacity:1"
         id="path4358" />
      <path
         d="m 304.97134,6.6484413 -1.60156,0 0,-1.5820312 -0.0391,0 q -0.99609,1.8164062 -3.08594,1.8164062 -3.57422,0 -3.57422,-4.2578125 l 0,-5.9765625 1.5918,0 0,5.7226563 q 0,3.1640625 2.42187,3.1640625 1.17188,0 1.92383,-0.859375 0.76172,-0.8691407 0.76172,-2.265625 l 0,-5.7617188 1.60156,0 0,10 z"
         style="font-size:20px;text-align:center;text-anchor:middle;stroke:none;stroke-opacity:1"
         id="path4360" />
      <path
         d="m 316.25064,2.0488319 -7.06055,0 q 0.0391,1.6699219 0.89844,2.578125 0.85938,0.9082032 2.36328,0.9082032 1.68946,0 3.10547,-1.1132813 l 0,1.5039063 q -1.31836,0.9570312 -3.48633,0.9570312 -2.11914,0 -3.33007,-1.3574219 -1.21094,-1.3671875 -1.21094,-3.8378906 0,-2.33398436 1.31836,-3.7988281 1.32812,-1.4746094 3.29101,-1.4746094 1.96289,0 3.03711,1.2695313 1.07422,1.2695312 1.07422,3.5253906 l 0,0.8398437 z m -1.64062,-1.35742184 q -0.01,-1.38671875 -0.67383,-2.15820316 -0.6543,-0.7714843 -1.82617,-0.7714843 -1.13282,0 -1.92383,0.8105468 -0.79102,0.81054691 -0.97656,2.11914066 l 5.40039,0 z"
         style="font-size:20px;text-align:center;text-anchor:middle;stroke:none;stroke-opacity:1"
         id="path4362" />
      <path
         d="m 318.07681,6.2871132 0,-1.71875 q 1.3086,0.9667969 2.88086,0.9667969 2.10938,0 2.10938,-1.40625 0,-0.4003907 -0.18555,-0.6738282 -0.17578,-0.2832031 -0.48828,-0.4980468 -0.30274,-0.2148438 -0.72266,-0.3808594 -0.41015,-0.1757813 -0.88867,-0.3613281 -0.66406,-0.2636719 -1.17187,-0.5273438 -0.49805,-0.2734375 -0.83985,-0.6054687 -0.33203,-0.34179691 -0.50781,-0.77148441 -0.16602,-0.4296875 -0.16602,-1.00585938 0,-0.70312501 0.32227,-1.24023441 0.32227,-0.546875 0.85937,-0.9082031 0.53711,-0.3710937 1.22071,-0.5566406 0.69336,-0.1855469 1.42578,-0.1855469 1.29883,0 2.32422,0.4492188 l 0,1.6210937 q -1.10352,-0.7226562 -2.53906,-0.7226562 -0.44922,0 -0.81055,0.1074218 -0.36133,0.097656 -0.625,0.2832032 -0.25391,0.1855468 -0.40039,0.4492187 -0.13672,0.2539063 -0.13672,0.56640626 0,0.390625 0.13672,0.65429688 0.14648,0.26367187 0.41992,0.46875 0.27344,0.20507812 0.66406,0.37109375 0.39063,0.16601562 0.88867,0.36132811 0.66407,0.2539063 1.19141,0.5273438 0.52734,0.2636718 0.89844,0.6054687 0.37109,0.3320313 0.5664,0.7714844 0.20508,0.4394531 0.20508,1.0449219 0,0.7421875 -0.33203,1.2890625 -0.32226,0.546875 -0.86914,0.9082031 -0.54687,0.3613281 -1.25977,0.5371094 -0.71289,0.1757812 -1.49414,0.1757812 -1.54296,0 -2.67578,-0.5957031 z"
         style="font-size:20px;text-align:center;text-anchor:middle;stroke:none;stroke-opacity:1"
         id="path4364" />
      <path
         d="m 331.79752,6.5507851 q -0.56641,0.3125 -1.49414,0.3125 -2.62696,0 -2.62696,-2.9296875 l 0,-5.9179688 -1.71875,0 0,-1.3671875 1.71875,0 0,-2.4414062 1.60156,-0.5175782 0,2.9589844 2.51954,0 0,1.3671875 -2.51954,0 0,5.6347656 q 0,1.0058594 0.3418,1.4355469 0.3418,0.4296875 1.13281,0.4296875 0.60547,0 1.04493,-0.3320312 l 0,1.3671875 z"
         style="font-size:20px;text-align:center;text-anchor:middle;stroke:none;stroke-opacity:1"
         id="path4366" />
    </g>
    <g
       style="font-style:normal;font-variant:normal;font-weight:normal;font-stretch:normal;font-size:40px;line-height:125%;font-family:'Segoe UI';-inkscape-font-specification:'Segoe UI';text-align:center;letter-spacing:0px;word-spacing:0px;text-anchor:middle;fill:#000000;fill-opacity:1;stroke:none;stroke-width:1px;stroke-linecap:butt;stroke-linejoin:miter;stroke-opacity:1"
       id="text4321-6-3-4">
      <path
         d="m 477.98853,102.68361 q 0,0.94726 -0.36133,1.72851 -0.35157,0.77149 -1.00586,1.32813 -0.64453,0.54687 -1.55274,0.84961 -0.9082,0.30273 -2.00195,0.30273 -2.00195,0 -3.18359,-0.76172 l 0,-1.71875 q 1.41601,1.11329 3.24218,1.11329 0.73243,0 1.31836,-0.18555 0.59571,-0.18555 1.01563,-0.53711 0.42969,-0.35156 0.6543,-0.84961 0.23437,-0.49805 0.23437,-1.12305 0,-2.74414 -3.90625,-2.74414 l -1.16211,0 0,-1.357419 1.10352,0 q 3.45703,0 3.45703,-2.578125 0,-2.382813 -2.63672,-2.382813 -1.48438,0 -2.7832,0.996094 l 0,-1.552734 q 1.33789,-0.800781 3.18359,-0.800781 0.87891,0 1.5918,0.24414 0.71289,0.244141 1.2207,0.683594 0.50781,0.439453 0.78125,1.054687 0.2832,0.615235 0.2832,1.357422 0,2.763672 -2.79297,3.554688 l 0,0.03906 q 0.71289,0.07813 1.31836,0.351563 0.60547,0.263672 1.04493,0.693362 0.43945,0.42968 0.68359,1.01562 0.25391,0.57617 0.25391,1.2793 z"
         style="font-size:20px;text-align:center;text-anchor:middle;stroke:none"
         id="path4369" />
      <path
         d="m 487.0022,96.316422 q 0,-0.644532 -0.20508,-1.123047 -0.19531,-0.478516 -0.54688,-0.791016 -0.34179,-0.322266 -0.81054,-0.478516 -0.46875,-0.15625 -1.01563,-0.15625 -0.46875,0 -0.91797,0.126954 -0.44922,0.126953 -0.8789,0.351562 -0.41992,0.224609 -0.82032,0.537109 -0.39062,0.3125 -0.73242,0.69336 l 0,-1.71875 q 0.67383,-0.654297 1.50391,-0.996094 0.83984,-0.351562 2.04101,-0.351562 0.85938,0 1.5918,0.253906 0.73242,0.24414 1.26953,0.722656 0.53711,0.478516 0.83985,1.181641 0.3125,0.703125 0.3125,1.611328 0,0.830078 -0.19532,1.503906 -0.18554,0.673828 -0.57617,1.269531 -0.38086,0.595703 -0.96679,1.14258 -0.58594,0.54687 -1.37696,1.11328 -0.98633,0.70312 -1.63086,1.20117 -0.63476,0.49805 -1.01562,0.9375 -0.3711,0.42969 -0.52735,0.86914 -0.14648,0.42969 -0.14648,0.9961 l 6.97266,0 0,1.43554 -8.64258,0 0,-0.69336 q 0,-0.89843 0.19531,-1.58203 0.19531,-0.68359 0.64453,-1.29883 0.44922,-0.61523 1.17188,-1.23046 0.73242,-0.61524 1.78711,-1.38672 0.76171,-0.546878 1.26953,-1.044925 0.51758,-0.498047 0.83008,-0.996094 0.3125,-0.498047 0.43945,-1.005859 0.13672,-0.517579 0.13672,-1.09375 z"
         style="font-size:20px;text-align:center;text-anchor:middle;stroke:none"
         id="path4371" />
      <path
         d="m 493.2522,92.644547 0,4.365234 -1.41602,0 0,-4.365234 1.41602,0 z"
         style="font-size:20px;text-align:center;text-anchor:middle;stroke:none"
         id="path4373" />
      <path
         d="m 498.11548,105.20314 -0.0391,0 0,1.44531 -1.60157,0 0,-14.804685 1.60157,0 0,6.5625 0.0391,0 q 1.18164,-1.992187 3.45703,-1.992187 1.92383,0 3.00781,1.347656 1.09375,1.337891 1.09375,3.593746 0,2.50977 -1.2207,4.02344 -1.2207,1.50391 -3.33984,1.50391 -1.98243,0 -2.99805,-1.67969 z m -0.0391,-4.0332 0,1.39648 q 0,1.24024 0.80078,2.10938 0.81054,0.85937 2.05078,0.85937 1.45508,0 2.27539,-1.11328 0.83008,-1.11328 0.83008,-3.0957 0,-1.669925 -0.77149,-2.61719 -0.77148,-0.947266 -2.08984,-0.947266 -1.39649,0 -2.24609,0.976563 -0.84961,0.966796 -0.84961,2.431643 z"
         style="font-size:20px;text-align:center;text-anchor:middle;stroke:none"
         id="path4375" />
      <path
         d="m 518.91626,98.269547 q -0.41992,-0.322266 -1.21094,-0.322266 -1.02539,0 -1.71875,0.966797 -0.68359,0.966797 -0.68359,2.636722 l 0,5.09765 -1.60156,0 0,-9.999997 1.60156,0 0,2.060547 0.0391,0 q 0.3418,-1.054688 1.04492,-1.640625 0.70313,-0.595703 1.57227,-0.595703 0.625,0 0.95703,0.136718 l 0,1.660157 z"
         style="font-size:20px;text-align:center;text-anchor:middle;stroke:none"
         id="path4377" />
      <path
         d="m 528.69165,102.04884 -7.06055,0 q 0.0391,1.66993 0.89844,2.57813 0.85938,0.9082 2.36328,0.9082 1.68946,0 3.10547,-1.11328 l 0,1.50391 q -1.31836,0.95703 -3.48633,0.95703 -2.11914,0 -3.33008,-1.35742 -1.21093,-1.36719 -1.21093,-3.83789 0,-2.333989 1.31836,-3.798833 1.32812,-1.474609 3.29101,-1.474609 1.96289,0 3.03711,1.269531 1.07422,1.269531 1.07422,3.525391 l 0,0.83984 z m -1.64062,-1.35742 q -0.01,-1.386717 -0.67383,-2.158202 -0.6543,-0.771484 -1.82617,-0.771484 -1.13282,0 -1.92383,0.810547 -0.79102,0.810547 -0.97657,2.119139 l 5.4004,0 z"
         style="font-size:20px;text-align:center;text-anchor:middle;stroke:none"
         id="path4379" />
      <path
         d="m 530.51782,106.28712 0,-1.71875 q 1.3086,0.9668 2.88086,0.9668 2.10938,0 2.10938,-1.40625 0,-0.40039 -0.18555,-0.67383 -0.17578,-0.2832 -0.48828,-0.49804 -0.30274,-0.21485 -0.72266,-0.38086 -0.41015,-0.17578 -0.88867,-0.36133 -0.66406,-0.26367 -1.17187,-0.52734 -0.49805,-0.27344 -0.83985,-0.60547 -0.33203,-0.3418 -0.50781,-0.77149 -0.16602,-0.429685 -0.16602,-1.005857 0,-0.703125 0.32227,-1.240235 0.32226,-0.546875 0.85937,-0.908203 0.53711,-0.371093 1.22071,-0.55664 0.69336,-0.185547 1.42578,-0.185547 1.29883,0 2.32422,0.449219 l 0,1.621093 q -1.10352,-0.722656 -2.53907,-0.722656 -0.44921,0 -0.81054,0.107422 -0.36133,0.09766 -0.625,0.283203 -0.25391,0.185547 -0.40039,0.449219 -0.13672,0.253906 -0.13672,0.566406 0,0.390625 0.13672,0.654297 0.14648,0.263669 0.41992,0.468749 0.27344,0.20508 0.66406,0.37109 0.39063,0.16602 0.88867,0.36133 0.66407,0.25391 1.19141,0.52735 0.52734,0.26367 0.89844,0.60547 0.37109,0.33203 0.5664,0.77148 0.20508,0.43945 0.20508,1.04492 0,0.74219 -0.33203,1.28906 -0.32227,0.54688 -0.86914,0.90821 -0.54688,0.36133 -1.25977,0.53711 -0.71289,0.17578 -1.49414,0.17578 -1.54297,0 -2.67578,-0.59571 z"
         style="font-size:20px;text-align:center;text-anchor:middle;stroke:none"
         id="path4381" />
      <path
         d="m 541.24048,105.20314 -0.0391,0 0,6.04492 -1.60157,0 0,-14.599607 1.60157,0 0,1.757812 0.0391,0 q 1.18164,-1.992187 3.45703,-1.992187 1.93359,0 3.01758,1.347656 1.08398,1.337891 1.08398,3.593746 0,2.50977 -1.2207,4.02344 -1.2207,1.50391 -3.33984,1.50391 -1.94336,0 -2.99805,-1.67969 z m -0.0391,-4.0332 0,1.39648 q 0,1.24024 0.80078,2.10938 0.81054,0.85937 2.05078,0.85937 1.45508,0 2.27539,-1.11328 0.83008,-1.11328 0.83008,-3.0957 0,-1.669925 -0.77149,-2.61719 -0.77148,-0.947266 -2.08984,-0.947266 -1.39649,0 -2.24609,0.976563 -0.84961,0.966796 -0.84961,2.431643 z"
         style="font-size:20px;text-align:center;text-anchor:middle;stroke:none"
         id="path4383" />
      <path
         d="m 555.53735,106.88283 q -2.21679,0 -3.54492,-1.39649 -1.31836,-1.40625 -1.31836,-3.7207 0,-2.519531 1.37696,-3.935547 1.37695,-1.416015 3.7207,-1.416015 2.23633,0 3.48633,1.376953 1.25976,1.376953 1.25976,3.818359 0,2.39258 -1.35742,3.83789 -1.34766,1.43555 -3.62305,1.43555 z m 0.11719,-9.121096 q -1.54297,0 -2.44141,1.054688 -0.89843,1.044921 -0.89843,2.890628 0,1.77734 0.9082,2.80273 0.9082,1.02539 2.43164,1.02539 1.55274,0 2.38281,-1.00586 0.83985,-1.00586 0.83985,-2.86133 0,-1.874996 -0.83985,-2.890621 -0.83007,-1.015625 -2.38281,-1.015625 z"
         style="font-size:20px;text-align:center;text-anchor:middle;stroke:none"
         id="path4385" />
      <path
         d="m 571.3772,106.64845 -1.60157,0 0,-5.70312 q 0,-3.183596 -2.32421,-3.183596 -1.20118,0 -1.99219,0.908203 -0.78125,0.898438 -0.78125,2.275393 l 0,5.70312 -1.60156,0 0,-9.999997 1.60156,0 0,1.660156 0.0391,0 q 1.13281,-1.894531 3.28125,-1.894531 1.64063,0 2.50977,1.064453 0.86914,1.054687 0.86914,3.056639 l 0,6.11328 z"
         style="font-size:20px;text-align:center;text-anchor:middle;stroke:none"
         id="path4388" />
      <path
         d="m 573.79907,106.28712 0,-1.71875 q 1.3086,0.9668 2.88086,0.9668 2.10938,0 2.10938,-1.40625 0,-0.40039 -0.18555,-0.67383 -0.17578,-0.2832 -0.48828,-0.49804 -0.30274,-0.21485 -0.72266,-0.38086 -0.41015,-0.17578 -0.88867,-0.36133 -0.66406,-0.26367 -1.17187,-0.52734 -0.49805,-0.27344 -0.83985,-0.60547 -0.33203,-0.3418 -0.50781,-0.77149 -0.16602,-0.429685 -0.16602,-1.005857 0,-0.703125 0.32227,-1.240235 0.32226,-0.546875 0.85937,-0.908203 0.53711,-0.371093 1.22071,-0.55664 0.69336,-0.185547 1.42578,-0.185547 1.29883,0 2.32422,0.449219 l 0,1.621093 q -1.10352,-0.722656 -2.53907,-0.722656 -0.44921,0 -0.81054,0.107422 -0.36133,0.09766 -0.625,0.283203 -0.25391,0.185547 -0.40039,0.449219 -0.13672,0.253906 -0.13672,0.566406 0,0.390625 0.13672,0.654297 0.14648,0.263669 0.41992,0.468749 0.27344,0.20508 0.66406,0.37109 0.39063,0.16602 0.88867,0.36133 0.66407,0.25391 1.19141,0.52735 0.52734,0.26367 0.89844,0.60547 0.37109,0.33203 0.5664,0.77148 0.20508,0.43945 0.20508,1.04492 0,0.74219 -0.33203,1.28906 -0.32227,0.54688 -0.86914,0.90821 -0.54688,0.36133 -1.25977,0.53711 -0.71289,0.17578 -1.49414,0.17578 -1.54297,0 -2.67578,-0.59571 z"
         style="font-size:20px;text-align:center;text-anchor:middle;stroke:none"
         id="path4390" />
      <path
         d="m 590.91821,102.04884 -7.06054,0 q 0.0391,1.66993 0.89843,2.57813 0.85938,0.9082 2.36328,0.9082 1.68946,0 3.10547,-1.11328 l 0,1.50391 q -1.31836,0.95703 -3.48632,0.95703 -2.11915,0 -3.33008,-1.35742 -1.21094,-1.36719 -1.21094,-3.83789 0,-2.333989 1.31836,-3.798833 1.32812,-1.474609 3.29101,-1.474609 1.9629,0 3.03711,1.269531 1.07422,1.269531 1.07422,3.525391 l 0,0.83984 z m -1.64062,-1.35742 q -0.01,-1.386717 -0.67383,-2.158202 -0.6543,-0.771484 -1.82617,-0.771484 -1.13281,0 -1.92383,0.810547 -0.79102,0.810547 -0.97656,2.119139 l 5.40039,0 z"
         style="font-size:20px;text-align:center;text-anchor:middle;stroke:none"
         id="path4392" />
    </g>
    <g
       style="font-style:normal;font-weight:normal;font-size:20px;line-height:125%;font-family:sans-serif;text-align:center;letter-spacing:0px;word-spacing:0px;text-anchor:middle;fill:#000000;fill-opacity:1;stroke:none;stroke-width:1px;stroke-linecap:butt;stroke-linejoin:miter;stroke-opacity:1"
       id="text4970-2">
      <path
         d="m 484.05273,-45.751953 -11.26953,-5.009766 0,-1.210937 11.26953,-5.009766 0,1.757813 -8.88671,3.857422 8.88671,3.857421 0,1.757813 z"
         style=""
         id="path4395" />
      <path
         d="m 504.28711,-45 -7.87109,0 0,-1.484375 3.02734,0 0,-9.746094 -3.02734,0 0,-1.328125 q 0.61523,0 1.31835,-0.09766 0.70313,-0.107422 1.06446,-0.302734 0.44922,-0.244141 0.70312,-0.615235 0.26367,-0.380859 0.30274,-1.015625 l 1.51367,0 0,13.105469 2.96875,0 0,1.484375 z"
         style=""
         id="path4397" />
      <path
         d="m 517.85156,-45 -9.84375,0 0,-2.041016 q 1.02539,-0.878906 2.05078,-1.757812 1.03516,-0.878906 1.92383,-1.748047 1.875,-1.816406 2.56836,-2.880859 0.69336,-1.074219 0.69336,-2.314453 0,-1.132813 -0.75195,-1.767579 -0.74219,-0.644531 -2.08008,-0.644531 -0.88867,0 -1.92383,0.3125 -1.03516,0.3125 -2.02148,0.957031 l -0.0977,0 0,-2.050781 q 0.69336,-0.341797 1.8457,-0.625 1.16211,-0.283203 2.2461,-0.283203 2.23633,0 3.50586,1.083984 1.26953,1.074219 1.26953,2.919922 0,0.830078 -0.21485,1.552735 -0.20507,0.71289 -0.61523,1.357422 -0.38086,0.605468 -0.89844,1.191406 -0.50781,0.585937 -1.24023,1.298828 -1.04492,1.025391 -2.15821,1.992187 -1.11328,0.957032 -2.08007,1.777344 l 7.82226,0 0,1.669922 z"
         style=""
         id="path4399" />
      <path
         d="m 528.76953,-48.144531 q 0,1.49414 -1.24023,2.451172 -1.23047,0.957031 -3.36914,0.957031 -1.21094,0 -2.22657,-0.283203 -1.00586,-0.292969 -1.68945,-0.634766 l 0,-2.060547 0.0977,0 q 0.86914,0.654297 1.93359,1.044922 1.06445,0.38086 2.04102,0.38086 1.21093,0 1.89453,-0.390625 0.68359,-0.390625 0.68359,-1.230469 0,-0.644531 -0.37109,-0.976563 -0.3711,-0.332031 -1.42578,-0.566406 -0.39063,-0.08789 -1.02539,-0.205078 -0.625,-0.117188 -1.14258,-0.253906 -1.43555,-0.38086 -2.04102,-1.113282 -0.5957,-0.742187 -0.5957,-1.816406 0,-0.673828 0.27344,-1.269531 0.2832,-0.595703 0.84961,-1.064453 0.54687,-0.458985 1.38671,-0.722656 0.84961,-0.273438 1.89454,-0.273438 0.97656,0 1.97265,0.244141 1.00586,0.234375 1.66992,0.576172 l 0,1.96289 -0.0976,0 q -0.70313,-0.517578 -1.70899,-0.86914 -1.00586,-0.361329 -1.97265,-0.361329 -1.00586,0 -1.69922,0.390625 -0.69336,0.38086 -0.69336,1.142579 0,0.673828 0.41992,1.015625 0.41016,0.341796 1.32813,0.55664 0.50781,0.117188 1.13281,0.234375 0.63476,0.117188 1.05469,0.214844 1.27929,0.292969 1.97265,1.005859 0.69336,0.722657 0.69336,1.914063 z"
         style=""
         id="path4401" />
    </g>
    <g
       style="font-style:normal;font-variant:normal;font-weight:normal;font-stretch:normal;font-size:40px;line-height:125%;font-family:'Segoe UI';-inkscape-font-specification:'Segoe UI';text-align:center;letter-spacing:0px;word-spacing:0px;text-anchor:middle;fill:#000000;fill-opacity:1;stroke:none;stroke-width:1px;stroke-linecap:butt;stroke-linejoin:miter;stroke-opacity:1"
       id="text4321-3-4-1">
      <path
         d="m 494.38074,-21.890625 q -0.42969,0 -0.73242,-0.292969 -0.30274,-0.292968 -0.30274,-0.742187 0,-0.449219 0.30274,-0.742188 0.30273,-0.302734 0.73242,-0.302734 0.43945,0 0.74218,0.302734 0.3125,0.292969 0.3125,0.742188 0,0.429687 -0.3125,0.732422 -0.30273,0.302734 -0.74218,0.302734 z m 0.78125,12.5390625 -1.60157,0 0,-9.9999995 1.60157,0 0,9.9999995 z"
         style="font-size:20px;text-align:center;text-anchor:middle;stroke:none;stroke-opacity:1"
         id="path4404" />
      <path
         d="m 506.93933,-10.152344 q 0,5.5078128 -5.27344,5.5078128 -1.85547,0 -3.24218,-0.703125 l 0,-1.6015625 q 1.68945,0.9375 3.22265,0.9375 3.69141,0 3.69141,-3.9257813 l 0,-1.09375 -0.0391,0 q -1.14258,1.9140625 -3.4375,1.9140625 -1.86524,0 -3.00782,-1.3281255 -1.13281,-1.33789 -1.13281,-3.583984 0,-2.548828 1.2207,-4.052734 1.23047,-1.503906 3.35938,-1.503906 2.02148,0 2.99805,1.621093 l 0.0391,0 0,-1.386718 1.60156,0 0,9.199218 z m -1.60156,-3.720703 0,-1.474609 q 0,-1.191406 -0.81055,-2.041016 -0.80078,-0.849609 -2.00195,-0.849609 -1.48438,0 -2.32422,1.083984 -0.83984,1.074219 -0.83984,3.017578 0,1.669922 0.80078,2.675781 0.81054,0.996094 2.13867,0.996094 1.34766,0 2.1875,-0.957031 0.84961,-0.957031 0.84961,-2.451172 z"
         style="font-size:20px;text-align:center;text-anchor:middle;stroke:none;stroke-opacity:1"
         id="path4406" />
      <path
         d="m 518.50183,-9.3515625 -1.60156,0 0,-5.7031255 q 0,-3.183593 -2.32422,-3.183593 -1.20117,0 -1.99219,0.908203 -0.78125,0.898437 -0.78125,2.27539 l 0,5.7031255 -1.60156,0 0,-9.9999995 1.60156,0 0,1.660156 0.0391,0 q 1.13282,-1.894531 3.28125,-1.894531 1.64063,0 2.50977,1.064453 0.86914,1.054687 0.86914,3.05664 l 0,6.1132815 z"
         style="font-size:20px;text-align:center;text-anchor:middle;stroke:none;stroke-opacity:1"
         id="path4408" />
      <path
         d="m 525.70886,-9.1171875 q -2.21679,0 -3.54492,-1.3964845 -1.31836,-1.40625 -1.31836,-3.720703 0,-2.519531 1.37695,-3.935547 1.37696,-1.416015 3.72071,-1.416015 2.23633,0 3.48633,1.376953 1.25976,1.376953 1.25976,3.818359 0,2.392578 -1.35742,3.837891 -1.34766,1.4355465 -3.62305,1.4355465 z m 0.11719,-9.1210935 q -1.54297,0 -2.44141,1.054687 -0.89843,1.044922 -0.89843,2.890625 0,1.777344 0.9082,2.802735 0.9082,1.02539 2.43164,1.02539 1.55273,0 2.38281,-1.005859 0.83985,-1.00586 0.83985,-2.861328 0,-1.875 -0.83985,-2.890625 -0.83008,-1.015625 -2.38281,-1.015625 z"
         style="font-size:20px;text-align:center;text-anchor:middle;stroke:none;stroke-opacity:1"
         id="path4410" />
      <path
         d="m 538.46277,-17.730469 q -0.41992,-0.322265 -1.21094,-0.322265 -1.02539,0 -1.71875,0.966797 -0.68359,0.966796 -0.68359,2.636718 l 0,5.0976565 -1.60157,0 0,-9.9999995 1.60157,0 0,2.060546 0.0391,0 q 0.3418,-1.054687 1.04492,-1.640625 0.70313,-0.595703 1.57227,-0.595703 0.625,0 0.95703,0.136719 l 0,1.660156 z"
         style="font-size:20px;text-align:center;text-anchor:middle;stroke:none;stroke-opacity:1"
         id="path4412" />
      <path
         d="m 548.23816,-13.951172 -7.06055,0 q 0.0391,1.669922 0.89844,2.578125 0.85937,0.908203 2.36328,0.908203 1.68945,0 3.10547,-1.113281 l 0,1.503906 q -1.31836,0.9570315 -3.48633,0.9570315 -2.11914,0 -3.33008,-1.3574215 -1.21093,-1.367188 -1.21093,-3.837891 0,-2.333984 1.31836,-3.798828 1.32812,-1.474609 3.29101,-1.474609 1.96289,0 3.03711,1.269531 1.07422,1.269531 1.07422,3.52539 l 0,0.839844 z m -1.64063,-1.357422 q -0.01,-1.386718 -0.67382,-2.158203 -0.6543,-0.771484 -1.82618,-0.771484 -1.13281,0 -1.92382,0.810547 -0.79102,0.810547 -0.97657,2.11914 l 5.40039,0 z"
         style="font-size:20px;text-align:center;text-anchor:middle;stroke:none;stroke-opacity:1"
         id="path4414" />
      <path
         d="m 559.20496,-9.3515625 -1.60157,0 0,-1.6992185 -0.0391,0 q -1.11328,1.9335935 -3.4375,1.9335935 -1.88476,0 -3.01758,-1.3378905 -1.12304,-1.347656 -1.12304,-3.66211 0,-2.480468 1.25,-3.974609 1.25,-1.49414 3.33007,-1.49414 2.06055,0 2.99805,1.621093 l 0.0391,0 0,-6.191406 1.60157,0 0,14.8046875 z m -1.60157,-4.5214845 0,-1.474609 q 0,-1.210938 -0.80078,-2.050781 -0.80078,-0.839844 -2.03125,-0.839844 -1.46484,0 -2.30469,1.074219 -0.83984,1.074218 -0.83984,2.968749 0,1.728516 0.80078,2.734375 0.81055,0.996094 2.16797,0.996094 1.33789,0 2.16797,-0.966797 0.83984,-0.966797 0.83984,-2.441406 z"
         style="font-size:20px;text-align:center;text-anchor:middle;stroke:none;stroke-opacity:1"
         id="path4416" />
    </g>
  </g>
</svg>
